<?xml version="1.0" encoding="UTF-8"?>
<svg width="816px" height="385px" viewBox="0 0 816 385" version="1.1" xmlns="http://www.w3.org/2000/svg" xmlns:xlink="http://www.w3.org/1999/xlink">
    <!-- Generator: Sketch 53.1 (72631) - https://sketchapp.com -->
    <title>Group 8</title>
    <desc>Created with Sketch.</desc>
    <defs>
        <polygon id="path-1" points="5.13353973e-05 0.125222222 210.85596 0.125222222 210.85596 34.9756406 5.13353973e-05 34.9756406"></polygon>
        <polygon id="path-3" points="0 0.6121 6.23295479 0.6121 6.23295479 3.4331 0 3.4331"></polygon>
    </defs>
    <g id="Page-1" stroke="none" stroke-width="1" fill="none" fill-rule="evenodd">
        <g id="Artboard" transform="translate(-56.000000, -32.000000)">
            <g id="Group-8" transform="translate(56.000000, 32.000000)">
                <path d="M466.999523,193.075841 C325.417787,190.651681 299.820025,209.567047 239.188298,225.752169 C178.55657,241.93729 5.67080525e-15,246.658782 0,272 C0,297.341218 104.579663,298.95316 104.579663,312.259 C104.579663,325.564841 71.9703663,330 71.9703663,344.5 C71.9703663,359 124.581541,375.278756 233.499761,364.91038 C342.417981,354.542004 332.962834,338.285773 405.698273,338.285773 C478.433713,338.285773 541.500466,371.47524 603.950932,371.47524 C666.401398,371.47524 815.629468,371.673328 815.629468,338.285773 C815.629468,304.898218 672.372359,304.898218 668.147546,282.27554 C663.922733,259.652863 703.691198,262.151574 703.859574,239.5 C704.02795,216.848426 608.581259,195.5 466.999523,193.075841 Z" id="Path-8" fill="#F5F5F5" fill-rule="nonzero"></path>
                <g id="Group-7" transform="translate(68.000000, 0.000000)">
                    <g id="lamp" transform="translate(27.075104, 9.404154)" fill-rule="nonzero">
                        <path d="M2,250.595846 L2,242.595846 L33.1317646,242.595846 C41.0299648,241.956776 49.9956912,241.595846 59.5,241.595846 C69.0043088,241.595846 77.9700352,241.956776 85.8682282,242.595845 L117,242.595846 L117,250.595846 C117,255.566408 91.2563731,259.595846 59.5,259.595846 C27.7436269,259.595846 2,255.566408 2,250.595846 Z" id="Combined-Shape" fill="#D3D3D3"></path>
                        <ellipse id="Oval" fill="#F5F5F5" cx="59.5" cy="242.595846" rx="57.5" ry="8"></ellipse>
                        <path d="M24,239.595846 L24,234.595846 L40.0932293,234.595846 C45.795067,233.963998 52.6395735,233.595846 60,233.595846 C67.3604265,233.595846 74.204933,233.963998 79.9067707,234.595846 L96,234.595846 L96,239.595846 C96,242.909554 79.882251,245.595846 60,245.595846 C40.117749,245.595846 24,242.909554 24,239.595846 Z" id="Combined-Shape-Copy-2" fill="#D3D3D3"></path>
                        <ellipse id="Oval-Copy-9" fill="#F5F5F5" cx="60" cy="234.595846" rx="36" ry="5"></ellipse>
                        <path d="M54,232.595846 L54,226.595846 L64,226.595846 L64,232.595846 C64,233.14813 61.7614237,233.595846 59,233.595846 C56.2385763,233.595846 54,233.14813 54,232.595846 Z" id="Combined-Shape-Copy-2" fill="#D3D3D3"></path>
                        <ellipse id="Combined-Shape-Copy-3" fill="#A6A6A6" cx="102.5" cy="243.095846" rx="2.5" ry="1"></ellipse>
                        <ellipse id="Oval-Copy-9" fill="#F5F5F5" cx="59" cy="226.595846" rx="5" ry="1"></ellipse>
                        <polygon id="Path-3" fill="#A6A6A6" points="100 240.095846 100 243.095846 105 243.095846 105 240.095846"></polygon>
                        <ellipse id="Oval-Copy-10" fill="#D3D3D3" cx="102.5" cy="240.095846" rx="2.5" ry="1"></ellipse>
                        <rect id="Rectangle" fill="#A6A6A6" transform="translate(34.453026, 159.087999) rotate(-21.000000) translate(-34.453026, -159.087999) " x="31.4530259" y="90.0879989" width="6" height="138"></rect>
                        <path d="M55.9248962,225.595846 L55.9248962,222.595846 L61.9811557,222.429944 L61.9248962,225.595846 C61.9248962,226.14813 60.5817504,226.595846 58.9248962,226.595846 C57.2680419,226.595846 55.9248962,226.14813 55.9248962,225.595846 Z" id="Combined-Shape-Copy-2" fill="#A6A6A6"></path>
                        <g id="Group-6" transform="translate(11.376241, 97.345001) rotate(-100.000000) translate(-11.376241, -97.345001) translate(3.876241, 87.845001)">
                            <ellipse id="Oval-Copy-11" fill="#D3D3D3" cx="7.5" cy="14" rx="7.5" ry="5"></ellipse>
                            <rect id="Rectangle" fill="#D3D3D3" x="0" y="5" width="15" height="9"></rect>
                            <ellipse id="Oval" fill="#E7E7E7" cx="7.5" cy="5" rx="7.5" ry="5"></ellipse>
                        </g>
                        <rect id="Rectangle-Copy-3" fill="#A6A6A6" transform="translate(68.834566, 56.000000) rotate(-306.000000) translate(-68.834566, -56.000000) " x="65.8345659" y="-10" width="6" height="132"></rect>
                        <ellipse id="Oval" fill="#A6A6A6" transform="translate(15.590331, 94.724273) rotate(-38.000000) translate(-15.590331, -94.724273) " cx="15.5903308" cy="94.7242732" rx="2" ry="3"></ellipse>
                        <ellipse id="Oval-Copy-12" fill="#A6A6A6" transform="translate(122.306286, 17.198467) rotate(-36.000000) translate(-122.306286, -17.198467) " cx="122.306286" cy="17.1984671" rx="2" ry="3"></ellipse>
                        <g id="Group-6-Copy" transform="translate(125.704457, 15.408027) rotate(-100.000000) translate(-125.704457, -15.408027) translate(118.204457, 5.908027)">
                            <ellipse id="Oval-Copy-11" fill="#D3D3D3" cx="7.5" cy="14" rx="7.5" ry="5"></ellipse>
                            <rect id="Rectangle" fill="#D3D3D3" x="0" y="5" width="15" height="9"></rect>
                            <ellipse id="Oval" fill="#E7E7E7" cx="7.5" cy="5" rx="7.5" ry="5"></ellipse>
                        </g>
                        <g id="Group-3" transform="translate(159.123853, 50.629777) rotate(-37.000000) translate(-159.123853, -50.629777) translate(117.123853, 19.629777)">
                            <ellipse id="Oval" fill="#D3D3D3" cx="42.1958674" cy="49.8519156" rx="41" ry="5"></ellipse>
                            <ellipse id="Oval" fill="#FDE185" cx="41.5047031" cy="46.0084416" rx="16" ry="15.5"></ellipse>
                            <path d="M0.900483996,49.8954916 C0.854193778,48.9947546 0.830727133,48.0871052 0.830727133,47.1732694 C0.830727133,21.6147585 19.1870524,0.895491616 41.8307271,0.895491616 C64.4744019,0.895491616 82.8307271,21.6147585 82.8307271,47.1732694 C82.8307271,48.0871052 82.8072605,48.9947546 82.7609703,49.8954916 C81.5125979,47.3717075 63.664785,45.3702391 41.8307271,45.3702391 C19.9966692,45.3702391 2.14885634,47.3717075 0.900483996,49.8954916 Z" id="Combined-Shape" fill="#A6A6A6"></path>
                        </g>
                        <path d="M147.34207,22.6979046 L147.34207,34.6979046 L135.34207,34.6979046 L135.34207,22.6979046 C135.34207,21.0410503 138.028361,19.6979046 141.34207,19.6979046 C144.655778,19.6979046 147.34207,21.0410503 147.34207,22.6979046 Z" id="Combined-Shape" fill="#A6A6A6" transform="translate(141.342070, 27.197905) rotate(-40.000000) translate(-141.342070, -27.197905) "></path>
                        <path d="M138.920218,14.4781204 L138.920218,30.4781204 L132.920218,30.4781204 L132.920218,14.4781204 C132.920218,13.3735509 134.263363,12.4781204 135.920218,12.4781204 C137.577072,12.4781204 138.920218,13.3735509 138.920218,14.4781204 Z" id="Combined-Shape" fill="#A6A6A6" transform="translate(135.920218, 21.478120) rotate(-43.000000) translate(-135.920218, -21.478120) "></path>
                    </g>
                    <g id="plant" transform="translate(451.000000, 0.000000)">
                        <path d="M46.1042626,237.132154 L33,153 L127,153 L113.895737,237.132154 C113.964814,237.418498 114,237.707919 114,238 C114,244.075132 98.7776815,249 80,249 C61.2223185,249 46,244.075132 46,238 C46,237.707919 46.0351864,237.418498 46.1042626,237.132154 Z" id="Combined-Shape-Copy" fill="#FCC31B" fill-rule="nonzero"></path>
                        <ellipse id="Oval-Copy-2" fill="#FC920E" fill-rule="nonzero" cx="80" cy="153" rx="52" ry="11"></ellipse>
                        <ellipse id="Oval-Copy-4" fill="#FB740A" fill-rule="nonzero" cx="80" cy="164" rx="52" ry="11"></ellipse>
                        <g id="Group-18">
                            <path d="M83.0711707,76.5390979 C83.7018306,102.015256 84.7045689,153.064535 82.69005,155.650074 C80.8966833,157.951775 77.7314148,158.480975 73.1942444,157.237674 C73.1942444,157.237674 75.00511,122.879012 74.1776823,94.3554504 C49.6611367,69.4185154 7.55194252,92.5687474 7.55194252,92.5687474 C10.1843482,73.3706103 20.5781714,60.3276995 43.3676297,63.14474 C55.6324082,64.6583681 66.2346427,72.4285087 73.4119162,79.2831134 C72.6889631,70.1003137 71.4965584,62.7213915 69.6130222,59.1489886 C61.6526889,44.0598457 39.5118056,26.5869886 22,38.5009314 C4.48819444,50.4148743 5.13710556,63.1203029 2.35377222,69.4753314 C2.35377222,69.4753314 -10.3892556,27.3831029 23.4421611,13.0854457 C57.2735778,-1.20758286 72.3963556,48.8272743 72.3963556,48.8272743 C72.3963556,48.8272743 63,-2 114.981356,0.375388571 C114.981356,0.375388571 88.3170222,11.4978457 86.7258833,38.5009314 C86.7258833,38.5009314 105.429883,8.71607429 137.665522,15.0711029 C169.9058,21.4261314 165.127744,56.7652743 165.127744,56.7652743 C165.127744,56.7652743 127,13.0854457 82.69005,62.3288171 C82.69005,62.3288171 82.7472337,64.2392014 82.8365891,67.5136044 C88.2301209,63.0960856 102.538454,54.2284907 125.761588,59.7634669 C156.01446,66.9727974 148.053422,98 148.053422,98 C148.053422,98 127.699892,62.9468121 83.0711707,76.5390979 Z" id="Combined-Shape" fill="#005387"></path>
                            <path d="M90.0641638,132.888362 C68.3952455,104.674856 37.4786813,118.664955 37.4786813,118.664955 C37.4786813,118.664955 40.8684096,100.729799 61.3331781,99.496725 C74.4267139,98.7089687 85.1571702,112.087376 91.1896455,121.829803 C92.0136059,116.367788 93.2887933,110.79155 95.2046273,105.473989 C89.841093,61.3928044 47.1908779,55.0794781 47.1908779,55.0794781 C72.0325275,43.3037786 99.3581063,65.2499388 100.908149,93.7399844 C104.818443,87.6725598 110.045845,82.5214833 117,79.0931991 C152.5074,61.5909263 183,87 179.66917,104.820482 C179.66917,104.820482 160.79017,73.7939364 125.68267,91.2962091 C111.871815,98.1804744 104.898014,110.468766 101.358192,122.891657 C112.892137,108.638572 134.002049,105.19375 147.023816,113.297084 C165.224621,124.619621 157.26922,144.980416 157.26922,144.980416 C157.26922,144.980416 145.935947,116.850889 123.033645,121.194429 C100.131343,125.537969 97.9593237,144.980416 97.9593237,144.980416 C97.9593237,144.980416 97.9398625,145.078937 97.9033784,145.25952 C97.3933343,154.816452 97.949567,161.724173 97,162 C95.2331467,162.51323 93.2331467,161.51323 91,159 C91,159 89.2407276,147.446864 90.0641638,132.888362 Z" id="Combined-Shape" fill="#0072A9"></path>
                        </g>
                        <path d="M28,153 C28,159.046065 51.281193,163.947368 80,163.947368 C108.718807,163.947368 132,159.046065 132,153 L132,168.052632 C132,174.098696 108.718807,179 80,179 C51.281193,179 28,174.098696 28,168.052632 L28,153 Z" id="Combined-Shape" fill="#FCA311" fill-rule="nonzero"></path>
                    </g>
                    <g id="computer" transform="translate(238.000000, 74.000000)" fill-rule="nonzero">
                        <rect id="Rectangle" fill="#00A3DD" x="0" y="0" width="279" height="160" rx="8"></rect>
                        <rect id="Rectangle" fill="#FFFFFF" x="10" y="10" width="259" height="133"></rect>
                        <polygon id="Rectangle-Copy-2" fill="#0095CF" points="95.4367089 177 183.563291 177 198.5 198 80.5 198"></polygon>
                        <rect id="Rectangle" fill="#0083BC" x="80.5" y="198" width="118" height="4"></rect>
                        <rect id="Rectangle-Copy" fill="#00A3DD" x="114.5" y="144" width="50" height="43"></rect>
                        <g id="Group-2" transform="translate(204.000000, 74.000000)">
                            <rect id="Rectangle-Copy-4" fill="#F5F5F5" x="0" y="0" width="50" height="62"></rect>
                            <rect id="Rectangle-Copy-12" fill="#D3D3D3" x="6" y="16" width="38" height="38"></rect>
                        </g>
                        <g id="Group" transform="translate(24.000000, 22.000000)">
                            <rect id="Rectangle" fill="#F5F5F5" x="0" y="0" width="160" height="103"></rect>
                            <rect id="Rectangle" fill="#E7E7E7" x="0" y="0" width="160" height="11"></rect>
                            <rect id="Rectangle-Copy-5" fill="#D3D3D3" x="0" y="11" width="48" height="92"></rect>
                            <rect id="Rectangle-Copy-6" fill="#D3D3D3" x="58" y="20" width="56" height="5"></rect>
                            <rect id="Rectangle-Copy-7" fill="#D3D3D3" x="58" y="30" width="68" height="5"></rect>
                            <rect id="Rectangle-Copy-8" fill="#D3D3D3" x="58" y="40" width="56" height="5"></rect>
                            <rect id="Rectangle-Copy-9" fill="#D3D3D3" x="58" y="50" width="68" height="5"></rect>
                            <rect id="Rectangle-Copy-10" fill="#D3D3D3" x="58" y="67" width="68" height="5"></rect>
                            <rect id="Rectangle-Copy-11" fill="#D3D3D3" x="58" y="77" width="68" height="5"></rect>
                        </g>
                        <rect id="Rectangle-Copy-14" fill="#F5F5F5" x="10" y="10" width="259" height="6"></rect>
                        <rect id="Rectangle-Copy-13" fill="#D3D3D3" x="204" y="74" width="50" height="5"></rect>
                    </g>
                    <g id="cup" transform="translate(0.000000, 223.000000)" fill-rule="nonzero">
                        <ellipse id="Oval" fill="#FCA311" cx="40.5" cy="6.5" rx="25.5" ry="6.5"></ellipse>
                        <ellipse id="Oval" fill="#FC830A" cx="40.5" cy="9.5" rx="23" ry="4.5"></ellipse>
                        <ellipse id="Oval" stroke="#FCC31B" stroke-width="7" cx="14.5" cy="34" rx="11" ry="14.5"></ellipse>
                        <path d="M15.074322,7 C16.0759323,10.3562239 27.0767416,13 40.5,13 C53.9232584,13 64.9240677,10.3562239 65.925678,7 L66,7 L66,59 C66,63.418278 54.5832611,67 40.5,67 C26.4167389,67 15,63.418278 15,59 L15,7 L15.074322,7 Z" id="Combined-Shape" fill="#FCC31B"></path>
                    </g>
                    <g id="paper" transform="translate(122.000000, 290.000000)">
                        <polygon id="Fill-2" fill="#D3D3D3" points="-0.0002 11.8624 -0.0002 15.8624 46.0908 80.8084 147.4788 64.5914 147.4788 60.5914"></polygon>
                        <polygon id="Fill-2" fill="#F5F5F5" points="80.3358 0.0004 -0.0002 11.8624 46.0908 76.8084 147.4788 60.5914"></polygon>
                        <polygon id="Fill-3" fill="#00A3DD" points="80.3358 0.0004 -0.0002 11.8624 3.7618 17.1644 85.8168 4.9464"></polygon>
                        <polygon id="Fill-4" fill="#A6A6A6" points="17.3273 21.7266 45.3233 17.5206 47.0203 19.4496 18.8093 23.7006"></polygon>
                        <polygon id="Fill-5" fill="#A6A6A6" points="20.2926 25.6729 86.6186 15.6519 88.6026 17.5219 21.7746 27.6469"></polygon>
                        <polygon id="Fill-6" fill="#A6A6A6" points="23.7516 30.2774 80.3996 21.6644 82.3036 23.5494 25.2336 32.2514"></polygon>
                        <polygon id="Fill-7" fill="#A6A6A6" points="26.7169 34.2247 95.2149 23.7537 97.1989 25.6227 28.1989 36.1977"></polygon>
                        <polygon id="Fill-8" fill="#A6A6A6" points="29.6818 38.171 74.3608 31.307 76.1658 33.213 31.1648 40.145"></polygon>
                        <polygon id="Fill-9" fill="#A6A6A6" points="32.6471 42.1182 103.1501 31.2322 105.1341 33.1012 34.1291 44.0912"></polygon>
                        <polygon id="Fill-10" fill="#A6A6A6" points="36.1061 46.7227 107.7791 35.5947 109.7631 37.4637 37.5891 48.6957"></polygon>
                        <polygon id="Fill-11" fill="#A6A6A6" points="39.0714 50.669 85.7914 43.382 87.5954 45.289 40.5534 52.643"></polygon>
                    </g>
                    <path d="M236,340 L210,346.3043 C212.666667,354.3043 222,359.3043 238,361.3043 C238,361.3043 254,353.3043 261,346.3043 C249,347.637633 240.666667,345.5362 236,340 Z" id="post-it" fill="#FDE185" fill-rule="nonzero"></path>
                    <g id="pencil" transform="translate(137.921851, 355.523202) rotate(-38.000000) translate(-137.921851, -355.523202) translate(134.421851, 319.523202)" fill-rule="nonzero">
                        <polygon id="Rectangle" fill="#FCA311" points="1 9 6 9 7 70 1.9095836e-14 70"></polygon>
                        <ellipse id="Oval" fill="#FCA311" cx="3.5" cy="70" rx="3.5" ry="2"></ellipse>
                        <path d="M3.5,11 C4.88071187,11 6,10.0470088 6,8.87143465 C6,8.08771853 5.16666667,5.13057365 3.5,0 C1.83333333,5.13057365 1,8.08771853 1,8.87143465 C1,10.0470088 2.11928813,11 3.5,11 Z" id="Oval-Copy-5" fill="#FEEDB5"></path>
                        <path d="M3.5,5 C4.11364972,5 4.61111111,4.5668222 4.61111111,4.0324703 C4.61111111,3.6762357 4.24074074,2.33207893 3.5,0 C2.75925926,2.33207893 2.38888889,3.6762357 2.38888889,4.0324703 C2.38888889,4.5668222 2.88635028,5 3.5,5 Z" id="Oval-Copy-5" fill="#FCA311"></path>
                        <ellipse id="Oval-Copy-6" fill="#FCA311" cx="3.5" cy="9" rx="2.5" ry="2"></ellipse>
                        <ellipse id="Oval-Copy-7" fill="#FEEDB5" cx="3.5" cy="4" rx="1.25" ry="1"></ellipse>
                    </g>
                    <g id="keyboard" transform="translate(272.000000, 282.000000)">
                        <path d="M0.0680851064,33 L0.0680851064,34.1623484 C0.0680851064,35.729587 1.06192728,37 2.28816982,37 L208.848,37 C210.074085,37 211.068085,35.729587 211.068085,34.1623484 L211.068085,33 L0.0680851064,33 Z" id="Fill-1" fill="#A6A6A6"></path>
                        <g id="Group-5" transform="translate(0.068085, 0.000000)">
                            <mask id="mask-2" fill="white">
                                <use xlink:href="#path-1"></use>
                            </mask>
                            <g id="Clip-4"></g>
                            <path d="M191.111732,2.40184 C190.131471,1.13172889 187.419625,0.125128889 184.904146,0.125128889 L28.2299591,0.125128889 C25.7110187,0.125128889 22.9313573,1.13344 21.8636123,2.40541778 L21.8530702,2.40541778 L21.7429285,2.55910667 L21.6963543,2.62397333 L0.246261074,32.5433733 C-0.717006637,33.8869067 1.23155712,34.9765733 4.60126331,34.97564 L206.133799,34.9225956 C209.498785,34.9219733 211.524762,33.8327733 210.654013,32.4912622 L191.263884,2.61977333 L191.221716,2.55506222 L191.122274,2.40184 L191.111732,2.40184 Z" id="Fill-3" fill="#D3D3D3" mask="url(#mask-2)"></path>
                        </g>
                        <path d="M29.6023077,7.99952152 C30.0440194,7.99952152 30.5381939,7.77064659 30.7007076,7.49105235 L33.0138901,3.50846917 C33.1762531,3.22887492 32.9612766,3 32.5362987,3 L26.7687195,3.00015949 C26.3437415,3.00015949 25.8498686,3.22903442 25.6716764,3.50878816 L23.1307033,7.49153083 C22.9525111,7.77112508 23.167789,8 23.6095008,8 L29.6023077,7.99952152 Z" id="Fill-6" fill="#F5F5F5"></path>
                        <path d="M40.8813764,7.99952137 C41.3402614,7.99952137 41.8332888,7.77061724 41.977219,7.49098732 L44.0266968,3.50853405 C44.1706269,3.22874461 43.9269323,3 43.4854317,3 L37.4978429,3.00015952 C37.0563422,3.00015952 36.5637847,3.22906364 36.4032532,3.50869356 L34.1174418,7.49162538 C33.9569103,7.7712553 34.2010747,8.00015943 34.6598032,7.99999992 L40.8813764,7.99952137 Z" id="Fill-8" fill="#F5F5F5"></path>
                        <path d="M53.1838438,7.99952141 C53.6607949,7.99952141 54.1520708,7.77059537 54.2759478,7.49093868 L56.0383879,3.5084232 C56.1621021,3.22876651 55.8878146,3 55.4289323,3 L49.204151,3.00015953 C48.745106,3.00015953 48.2543184,3.22908557 48.1133493,3.50874226 L46.1051085,7.49141727 C45.9639766,7.77107396 46.2389153,8 46.7158664,8 L53.1838438,7.99952141 Z" id="Fill-10" fill="#F5F5F5"></path>
                        <path d="M64.765599,7.99952135 C65.2122356,7.99952135 65.6524699,7.77056609 65.7443886,7.49103326 L67.0504576,3.50832862 C67.1423763,3.22879579 66.8655531,2.99984053 66.4358369,3.00000008 L60.6053242,3.00015963 C60.175608,3.00015963 59.7356786,3.22895534 59.6277541,3.50864772 L58.0913548,7.49151191 C57.9835828,7.77120429 58.2605584,8 58.707195,8 L64.765599,7.99952135 Z" id="Fill-12" fill="#F5F5F5"></path>
                        <path d="M77.0812565,7.99952122 C77.5467397,7.99952122 77.9850565,7.77070361 78.0555938,7.49098445 L79.0580508,3.50837721 C79.1285882,3.22881761 78.8195899,3 78.3717411,3 L72.2983772,3.00015957 C71.8502106,3.00031913 71.4123705,3.22913674 71.3253108,3.50869634 L70.0828044,7.49162271 C69.9955859,7.7711823 70.3050607,8.00015948 70.770385,7.99999992 L77.0812565,7.99952122 Z" id="Fill-14" fill="#F5F5F5"></path>
                        <path d="M81.0759165,7.49157411 C81.011146,7.77116047 81.3553739,8 81.8407385,8 L88.4243031,7.99952126 C88.9096677,7.99952126 89.3453363,7.77052215 89.3923819,7.49093578 L90.0637752,3.50826631 C90.1108208,3.22867994 89.7672556,3 89.3001129,3 L82.9640344,3 C82.4970574,3 82.0618858,3.22899911 81.997281,3.50858547 L81.0759165,7.49157411 Z" id="Fill-16" fill="#F5F5F5"></path>
                        <path d="M100.936782,7.9995212 C101.387387,7.9995212 101.771863,7.77065245 101.791241,7.49103039 L102.067294,3.50833121 C102.086672,3.22870914 101.747564,3 101.314029,3 L95.4320114,3.0001596 C94.9983228,3.0001596 94.6144622,3.22886874 94.578629,3.50865041 L94.0706596,7.49150919 C94.0349803,7.77113126 94.3743955,8 94.8250011,8 L100.936782,7.9995212 Z" id="Fill-18" fill="#F5F5F5"></path>
                        <path d="M105.06835,7.49162004 C105.056714,7.77126887 105.429241,8.00015953 105.896134,7.99999992 L112.228292,7.99952107 C112.695345,7.99952107 113.073291,7.77063041 113.068031,7.49098157 L112.994067,3.50837988 C112.988807,3.22873104 112.616759,3 112.167399,3 L106.073392,3.00015962 C105.623873,3.00015962 105.246564,3.22905028 105.234927,3.50869911 L105.06835,7.49162004 Z" id="Fill-20" fill="#F5F5F5"></path>
                        <path d="M124.291959,7.99952109 C124.747647,7.99952109 125.096023,7.7706012 125.066318,7.49091665 L124.642824,3.50828525 C124.613118,3.2286007 124.230061,2.99984045 123.79148,3.00000008 L117.841564,3.00015972 C117.403139,3.00015972 117.05523,3.22891997 117.06845,3.50844489 L117.257101,7.4915552 C117.270321,7.77123975 117.653845,8 118.109533,8 L124.291959,7.99952109 Z" id="Fill-22" fill="#F5F5F5"></path>
                        <path d="M136.364024,7.99952104 C136.800343,7.99952104 137.114552,7.77057922 137.062432,7.49102752 L136.320839,3.50833387 C136.268719,3.22878217 135.882733,3 135.462646,3 L129.768462,3.00031931 C129.348523,3.00031931 129.034612,3.22894182 129.070947,3.50865317 L129.587978,7.49150648 C129.624164,7.77121783 130.010894,8 130.447213,8 L136.364024,7.99952104 Z" id="Fill-24" fill="#F5F5F5"></path>
                        <path d="M148.348507,7.999521 C148.818938,7.99936133 149.137002,7.77055724 149.055278,7.4908191 L147.893006,3.50838256 C147.811444,3.22864442 147.374408,3 146.921476,3 L140.7821,3 C140.32949,3 140.011747,3.22896376 140.076452,3.50854223 L140.996443,7.49145777 C141.060987,7.77119591 141.498665,8 141.969097,8 L148.348507,7.999521 Z" id="Fill-26" fill="#F5F5F5"></path>
                        <path d="M24.3742664,15.9990427 C24.8669954,15.9990427 25.4101713,15.770102 25.5811828,15.4904275 L28.0142107,11.5086152 C28.1850636,11.2289406 27.9358436,11 27.4604061,11 L21.0087656,11.0006382 C20.5333282,11.0007977 19.9907869,11.2295788 19.8031184,11.5092533 L17.1305474,15.4915443 C16.9428789,15.7712188 17.1925748,16.0001595 17.6856211,15.9999999 L24.3742664,15.9990427 Z" id="Fill-28" fill="#F5F5F5"></path>
                        <path d="M36.6711439,15.9990427 C37.182262,15.9990427 37.7241426,15.7700801 37.875323,15.4903788 L40.0270529,11.5085043 C40.1782333,11.2289626 39.8984097,11 39.4053872,11 L32.7198901,11.0007978 C32.2268676,11.0007978 31.6854805,11.2296008 31.517027,11.5093021 L29.1170586,15.4914957 C28.9486051,15.771197 29.2289222,16 29.7400403,16 L36.6711439,15.9990427 Z" id="Fill-30" fill="#F5F5F5"></path>
                        <path d="M49.2715599,15.9990425 C49.7535737,15.998883 50.2444303,15.7700507 50.3624904,15.4903137 L52.0413938,11.5084097 C52.1592987,11.2286727 51.8753961,10.9998405 51.4104475,11.0000001 L45.1040879,11.0006384 C44.6391393,11.0006384 44.1487481,11.2294706 44.0142434,11.5092076 L42.1013919,15.4914308 C41.9670424,15.7711678 42.2514103,16 42.7334241,16 L49.2715599,15.9990425 Z" id="Fill-32" fill="#F5F5F5"></path>
                        <path d="M62.5845306,15.9990425 C63.0850205,15.9988829 63.5740734,15.7698691 63.6708853,15.4902649 L65.050575,11.5082988 C65.147548,11.2286945 64.8318221,11 64.3488904,11 L57.7993508,11.0006384 C57.3165801,11.0006384 56.8283327,11.2294925 56.7142847,11.5092563 L55.0913572,15.4913821 C54.9773093,15.7711459 55.2936795,16 55.7943305,16 L62.5845306,15.9990425 Z" id="Fill-34" fill="#F5F5F5"></path>
                        <path d="M75.1347296,15.9990422 C75.6031708,15.9990422 76.0413073,15.7699993 76.1080982,15.4903594 L77.059153,11.5083637 C77.1259439,11.2287237 76.8108354,11 76.3589789,11 L70.2317015,11.0006384 C69.779845,11.0006384 69.3424623,11.2295218 69.2596898,11.5093213 L68.0812745,15.4914767 C67.9985019,15.7712762 68.3140627,16.0001595 68.782504,15.9999999 L75.1347296,15.9990422 Z" id="Fill-36" fill="#F5F5F5"></path>
                        <path d="M80.0750831,15.4914442 C80.0137552,15.7712616 80.3624301,16.0001595 80.8497592,15.9999999 L87.4615627,15.9990422 C87.9488919,15.9990422 88.3843041,15.7699846 88.4288491,15.4903268 L89.0642435,11.5085557 C89.1087886,11.228898 88.7607411,11 88.2905085,11 L81.9131939,11.0006385 C81.4431181,11.0007981 81.0081765,11.2296961 80.9471623,11.5095135 L80.0750831,15.4914442 Z" id="Fill-38" fill="#F5F5F5"></path>
                        <path d="M99.8133683,15.9990421 C100.321116,15.9988825 100.753527,15.769948 100.774118,15.4902455 L101.067294,11.5083177 C101.087885,11.2286153 100.703847,10.9998404 100.214076,11.0000001 L93.5697226,11.000479 C93.0799512,11.000479 92.648194,11.2294135 92.6102805,11.5091159 L92.0706658,15.4913631 C92.0327522,15.7712251 92.4171174,16 92.9250285,16 L99.8133683,15.9990421 Z" id="Fill-40" fill="#F5F5F5"></path>
                        <path d="M105.068321,15.4913306 C105.057352,15.7712105 105.430292,16 105.897293,16 L112.227949,15.9990421 C112.69495,15.9988824 113.072848,15.7699333 113.06804,15.490213 L112.99832,11.5085098 C112.993512,11.2287896 112.621023,10.9998404 112.170701,11.0000001 L106.064229,11.0006387 C105.613907,11.0006387 105.236309,11.2295878 105.22534,11.5093081 L105.068321,15.4913306 Z" id="Fill-42" fill="#F5F5F5"></path>
                        <path d="M125.19051,15.9990418 C125.70364,15.9990418 126.097861,15.7700635 126.066316,15.4903075 L125.61677,11.5085747 C125.585226,11.2288187 125.154341,11 124.659378,11 L117.942935,11.0006387 C117.447971,11.0006387 117.054411,11.2296171 117.068449,11.5093731 L117.26878,15.4915849 C117.282818,15.7711812 117.714198,16.0001596 118.227493,15.9999999 L125.19051,15.9990418 Z" id="Fill-44" fill="#F5F5F5"></path>
                        <path d="M137.267441,15.9990418 C137.759977,15.9990418 138.117767,15.7700414 138.062442,15.4902586 L137.273148,11.5086234 C137.217823,11.2288406 136.783466,11 136.308368,11 L129.864663,11.0006388 C129.389565,11.0007985 129.032409,11.2296391 129.070931,11.5094219 L129.621011,15.4915362 C129.659691,15.7711593 130.094365,16.0001596 130.586901,15.9999999 L137.267441,15.9990418 Z" id="Fill-46" fill="#F5F5F5"></path>
                        <path d="M150.337012,15.9990417 C150.810154,15.9990417 151.133907,15.7700195 151.0567,15.4903696 L149.954783,11.5086722 C149.877271,11.2288626 149.440524,11 148.984133,11 L142.793996,11.0007985 C142.337605,11.0007985 142.014309,11.2298208 142.075527,11.5094707 L142.947802,15.4914875 C143.009019,15.7711374 143.446223,16 143.919365,16 L150.337012,15.9990417 Z" id="Fill-48" fill="#F5F5F5"></path>
                        <path d="M165.443497,7.99952092 C165.885647,7.99952092 166.155161,7.77068029 166.042436,7.49105717 L164.437268,3.50846375 C164.324543,3.22884063 163.884205,3 163.458806,3 L157.685665,3.00015969 C157.260115,3.00015969 156.991053,3.22900032 157.087783,3.50878314 L158.465236,7.49153625 C158.561815,7.77115937 159.002606,8 159.444755,8 L165.443497,7.99952092 Z" id="Fill-50" fill="#F5F5F5"></path>
                        <path d="M177.434754,7.99952078 C177.907116,7.99952078 178.174089,7.77065091 178.028188,7.49099207 L175.949153,3.50836899 C175.803253,3.22871015 175.311868,3 174.857402,3 L168.692521,3.00015971 C168.238054,3.00015971 167.971726,3.22902958 168.100538,3.50868842 L169.935976,7.49163092 C170.064949,7.77128977 170.556817,8.00015963 171.029179,7.99999992 L177.434754,7.99952078 Z" id="Fill-52" fill="#F5F5F5"></path>
                        <path d="M189.489244,7.99952081 C189.943768,7.99952081 190.180492,7.77062902 190.015592,7.49094337 L187.664635,3.5084178 C187.499734,3.22873215 187.006739,2.99984035 186.569435,3.00000008 L180.63736,3.00015981 C180.200056,3.00015981 179.963952,3.22905161 180.112564,3.50873726 L182.228968,7.49142256 C182.37758,7.7711082 182.871041,8 183.325719,8 L189.489244,7.99952081 Z" id="Fill-54" fill="#F5F5F5"></path>
                        <path d="M169.35782,15.9990416 C169.853549,15.9990416 170.161645,15.7699754 170.042459,15.4902719 L168.346097,11.5084503 C168.226912,11.2287468 167.738203,10.9998403 167.260024,11.0000001 L160.771344,11.000639 C160.293165,11.000639 159.985548,11.2297052 160.087662,11.5094087 L161.543259,15.4913901 C161.645532,15.7712533 162.134879,16 162.630769,16 L169.35782,15.9990416 Z" id="Fill-56" fill="#F5F5F5"></path>
                        <path d="M181.416787,15.9990415 C181.894238,15.9988817 182.17124,15.7699534 182.032124,15.490223 L180.050839,11.5084989 C179.91157,11.2287686 179.420899,11 178.960202,11 L172.711523,11.000639 C172.250826,11.000639 171.97444,11.2297271 172.097261,11.5092977 L173.846738,15.4915011 C173.969713,15.7712314 174.460999,16 174.938604,16 L181.416787,15.9990415 Z" id="Fill-58" fill="#F5F5F5"></path>
                        <path d="M194.410137,15.9990414 C194.916623,15.9988816 195.189183,15.7699313 195.015899,15.4901741 L192.546557,11.5085477 C192.373272,11.2287905 191.831575,11 191.343021,11 L184.716649,11.0006391 C184.227932,11.0007988 183.956024,11.2295894 184.112192,11.5093465 L186.335382,15.4914523 C186.49155,15.7710497 187.033736,16 187.540221,16 L194.410137,15.9990414 Z" id="Fill-60" fill="#F5F5F5"></path>
                        <path d="M172.342657,23.998563 C172.842522,23.9984034 173.158474,23.7696066 173.044993,23.4900371 L171.426745,19.5082067 C171.313112,19.2286372 170.824961,18.9998404 170.341981,19.0000001 L163.786999,19.0011177 C163.303868,19.0011177 162.988372,19.2300742 163.085728,19.5096437 L164.474275,23.4917933 C164.571784,23.7713629 165.060544,24 165.560409,24 L172.342657,23.998563 Z" id="Fill-62" fill="#F5F5F5"></path>
                        <path d="M186.333112,23.9985628 C186.863818,23.9984031 187.178431,23.7695844 187.032268,23.4899881 L184.949658,19.5082553 C184.803334,19.228659 184.263907,19 183.751128,19 L176.794934,19.0011177 C176.282155,19.0012774 175.968028,19.2300961 176.09707,19.5096925 L177.936131,23.4917446 C178.065173,23.7713409 178.604924,24.0001596 179.135792,23.9999999 L186.333112,23.9985628 Z" id="Fill-64" fill="#F5F5F5"></path>
                        <path d="M199.390523,23.9985626 C199.903042,23.9985626 200.186596,23.769555 200.020643,23.4900827 L197.657068,19.5081607 C197.491116,19.2286883 196.95021,18.9998404 196.454848,19.0000001 L189.736891,19.001118 C189.241685,19.0012777 188.958599,19.2301256 189.108019,19.5097576 L191.236235,23.4918393 C191.385654,23.7713117 191.927184,24.0001596 192.439702,23.9999999 L199.390523,23.9985626 Z" id="Fill-66" fill="#F5F5F5"></path>
                        <path d="M176.254971,31.9980834 C176.809,31.9979237 177.164545,31.7689014 177.04491,31.4892515 L175.344598,27.5081931 C175.225123,27.2285432 174.688527,26.9998404 174.152251,27.0000001 L166.874701,27.0015972 C166.338266,27.0015972 165.983201,27.2304597 166.085722,27.5101096 L167.544846,31.4916472 C167.647367,31.7712971 168.184443,32.0001596 168.738472,31.9999999 L176.254971,31.9980834 Z" id="Fill-68" fill="#F5F5F5"></path>
                        <path d="M190.316244,31.9982429 C190.851875,31.9980832 191.175511,31.7690316 191.035418,31.489346 L189.04242,27.5082581 C188.902327,27.2285724 188.363604,26.9998404 187.845137,27.0000001 L180.81251,27.0015974 C180.294043,27.0015974 179.970871,27.2304892 180.094419,27.5101748 L181.854083,31.4917419 C181.977785,31.7714276 182.517127,32.0001596 183.052603,31.9999999 L190.316244,31.9982429 Z" id="Fill-70" fill="#F5F5F5"></path>
                        <path d="M204.308992,31.998083 C204.874185,31.9979232 205.194472,31.7690095 205.020868,31.4892971 L202.549452,27.5083068 C202.375847,27.2285943 201.78618,26.9998403 201.239097,27.0000001 L193.818322,27.0015975 C193.27124,27.0015975 192.951442,27.2305113 193.107751,27.5102237 L195.332793,31.4916932 C195.489102,31.7714057 196.079422,32.0001597 196.644453,31.9999999 L204.308992,31.998083 Z" id="Fill-72" fill="#F5F5F5"></path>
                        <path d="M28.6248994,23.9968114 C29.1427147,23.9968114 29.6917408,23.7678793 29.8447998,23.4885693 L32.02656,19.5080828 C32.1797766,19.2286133 31.8955693,19 31.3950932,19 L16.0327651,19.0025508 C15.532289,19.0027102 14.9701796,19.2313235 14.7835454,19.5109524 L12.1270029,23.4919172 C11.9405263,23.771546 12.2116504,24.0001593 12.7293081,23.9999999 L28.6248994,23.9968114 Z" id="Fill-74" fill="#F5F5F5"></path>
                        <path d="M152.2785,23.9968082 C152.785096,23.9968082 153.135472,23.7679614 153.057131,23.4883661 L151.941078,19.5079634 C151.862892,19.2285277 151.398242,18.9998405 150.908456,19.0000001 L135.878989,19.0025535 C135.389357,19.0025535 135.026181,19.2314003 135.071983,19.5109956 L135.723078,23.491877 C135.76888,23.7714723 136.220884,24.0001595 136.727325,23.9999999 L152.2785,23.9968082 Z" id="Fill-76" fill="#F5F5F5"></path>
                        <path d="M39.9374753,23.9985645 C40.4645139,23.9985645 41.0047083,23.7696895 41.1380323,23.4900953 L43.0369754,19.5083097 C43.1702993,19.2287154 42.8625794,19 42.3533495,19 L35.4466576,19.0011165 C34.9372673,19.001276 34.3975541,19.2301509 34.2470634,19.5095856 L32.1061798,23.4918497 C31.9558495,23.771444 32.2640507,24.0001594 32.7910893,23.9999999 L39.9374753,23.9985645 Z" id="Fill-78" fill="#F5F5F5"></path>
                        <path d="M53.5090317,23.9985644 C54.0052284,23.9984049 54.4946279,23.7695081 54.5965862,23.4900466 L56.0486224,19.5083583 C56.1505807,19.2287373 55.841685,19 55.3622547,19 L48.8597364,19.0011166 C48.380004,19.0012761 47.8912087,19.2300134 47.7732393,19.5096344 L46.0931187,23.4916417 C45.9753003,23.7712627 46.2848001,24 46.7809969,24 L53.5090317,23.9985644 Z" id="Fill-80" fill="#F5F5F5"></path>
                        <path d="M65.8164794,23.9985641 C66.3305549,23.9985641 66.8178621,23.7696381 66.8991061,23.4899814 L68.056089,19.5082637 C68.137333,19.228607 67.7971728,19 67.3003167,19 L60.5597287,19.0011167 C60.062716,19.0012762 59.5760349,19.2300428 59.4781977,19.5095399 L58.0848402,23.4917363 C57.9870031,23.7713929 58.3277894,24.0001594 58.8420215,23.9999999 L65.8164794,23.9985641 Z" id="Fill-82" fill="#F5F5F5"></path>
                        <path d="M71.0779307,23.4916877 C71.0017613,23.7713711 71.3759494,24 71.9094599,24 L79.1453877,23.9985641 C79.6788981,23.9984045 80.1635237,23.7694566 80.2226402,23.4899327 L81.061965,19.5081529 C81.1209191,19.2284694 80.7472182,18.9998405 80.2315727,19.0000001 L73.2384449,19.0011169 C72.7227993,19.0011169 72.2384986,19.2299053 72.1624916,19.5095888 L71.0779307,23.4916877 Z" id="Fill-84" fill="#F5F5F5"></path>
                        <path d="M92.6556911,23.9985638 C93.1541457,23.9985638 93.5878088,23.7695866 93.6192183,23.4900271 L94.0662342,19.5080581 C94.0974919,19.2284986 93.7290755,18.9998405 93.247312,19.0000001 L86.7105011,19.001117 C86.2288893,19.001117 85.7958332,19.2299347 85.7484914,19.5094942 L85.0722015,23.4917823 C85.024708,23.7713419 85.3937313,24.0001595 85.8921859,23.9999999 L92.6556911,23.9985638 Z" id="Fill-86" fill="#F5F5F5"></path>
                        <path d="M98.0691534,23.491877 C98.0445381,23.7714723 98.4483249,24.0001595 98.9666679,23.9999999 L105.996567,23.9987232 C106.51491,23.9985636 106.945679,23.7697168 106.953726,23.4901215 L107.067967,19.508123 C107.076014,19.2285277 106.672543,18.9998405 106.171715,19.0000001 L99.3775553,19.0009576 C98.8764115,19.0009576 98.4464314,19.229964 98.4216582,19.5095593 L98.0691534,23.491877 Z" id="Fill-88" fill="#F5F5F5"></path>
                        <path d="M119.143597,23.9985635 C119.668645,23.9984039 120.084527,23.7695352 120.067585,23.4899131 L119.828157,19.5080121 C119.811375,19.22839 119.382386,18.9998405 118.874919,19.0000001 L111.992713,19.0011173 C111.485247,19.0011173 111.069843,19.2298264 111.069843,19.5094485 L111.068085,23.4916687 C111.067925,23.7712908 111.497394,24.0001595 112.022442,23.9999999 L119.143597,23.9985635 Z" id="Fill-90" fill="#F5F5F5"></path>
                        <path d="M132.220271,23.998723 C132.725097,23.9985634 133.105291,23.7696727 133.065181,23.4900239 L132.493353,19.5082203 C132.453398,19.2285714 132.021261,19 131.53334,19 L124.912828,19.0009577 C124.424907,19.0011173 124.045328,19.230008 124.069148,19.5096568 L124.408925,23.4917797 C124.432745,23.7714285 124.865343,24.0001595 125.370168,23.9999999 L132.220271,23.998723 Z" id="Fill-92" fill="#F5F5F5"></path>
                        <path d="M14.2631558,31.9980865 C14.8143669,31.9979271 15.4055301,31.7691178 15.5771171,31.4897633 L18.0194456,27.5081638 C18.1908734,27.2286498 17.8944959,27 17.3609528,27 L10.1202382,27.0015945 C9.58653592,27.0017539 8.99569105,27.2307226 8.80739109,27.5102366 L6.12471347,31.4918361 C5.9364135,31.7715096 6.23326848,32.0001594 6.78447962,31.9999999 L14.2631558,31.9980865 Z" id="Fill-94" fill="#F5F5F5"></path>
                        <path d="M28.8590249,31.9980863 C29.3813465,31.9979269 29.9219185,31.7690958 30.0605305,31.489555 L32.0342818,27.5082124 C32.1728939,27.2286717 31.872442,27 31.3668625,27 L24.5104675,27.0015946 C24.0047371,27.0017541 23.4646176,27.2307447 23.3100177,27.510126 L21.1086651,31.4917875 C20.9540652,31.7713283 21.2549695,32.0001594 21.7772911,31.9999999 L28.8590249,31.9980863 Z" id="Fill-96" fill="#F5F5F5"></path>
                        <path d="M42.1582131,31.9980861 C42.6982467,31.9980861 43.2370328,31.7690663 43.3555502,31.4896494 L45.0439546,27.5082772 C45.1626279,27.2287008 44.8318709,27 44.3089911,27 L37.2182228,27.0015948 C36.6954989,27.0017543 36.1573366,27.2304552 36.0221333,27.5100316 L34.0982536,31.4918822 C33.9632062,31.7714586 34.294431,32.0001594 34.8344647,31.9999999 L42.1582131,31.9980861 Z" id="Fill-98" fill="#F5F5F5"></path>
                        <path d="M92.3480288,27.0044556 C91.8216648,27.0044556 90.9604561,27.0047738 90.434249,27.0047738 L87.8594138,27.0054103 C87.3332068,27.0055694 86.4718411,27.0057286 85.9456341,27.0058877 L78.8060472,27.0074789 C78.2798402,27.0074789 77.4184744,27.0077972 76.8922674,27.0077972 L50.8556947,27.0135256 C50.3294877,27.0135256 49.8065773,27.2418688 49.6938635,27.5206544 L48.0890263,31.4930303 C47.9764695,31.771975 48.3290533,32.000159 48.8726855,31.9999999 L75.7646585,31.9933167 C76.3082906,31.9931576 77.1977563,31.9929985 77.7413885,31.9928393 L85.115665,31.9909298 C85.6592971,31.9907707 86.5487628,31.9906116 87.0923949,31.9904525 L89.7516869,31.989816 C90.2953191,31.9896568 91.1847848,31.9894977 91.7284169,31.9893386 L99.1022224,31.9874291 C99.6458546,31.98727 100.53532,31.9871109 101.078952,31.9869517 L113.088937,31.9839284 C113.632569,31.9839284 114.07322,31.7555852 114.06804,31.4767996 L113.995357,27.5064923 C113.990019,27.2277068 113.555333,26.999841 113.028969,27.0000001 L101.401082,27.0023869 C100.874718,27.0025461 100.013509,27.0027052 99.4873017,27.0028643 L92.3480288,27.0044556 Z" id="Fill-100" fill="#F5F5F5"></path>
                        <path d="M127.085072,31.9980848 C127.656461,31.9979252 128.098162,31.7690711 128.066482,31.4894669 L127.617522,27.5079796 C127.585842,27.2283754 127.107512,26.9998405 126.554273,27.0000001 L119.048665,27.0014364 C118.495426,27.0014364 118.054386,27.2304501 118.068411,27.5100543 L118.268388,31.4918608 C118.282413,31.771465 118.761568,32.0001595 119.332957,31.9999999 L127.085072,31.9980848 Z" id="Fill-102" fill="#F5F5F5"></path>
                        <path d="M141.16286,31.9982442 C141.713581,31.9980846 142.11863,31.7692012 142.06297,31.4895613 L141.271001,27.5078849 C141.215181,27.2284046 140.733638,26.9998405 140.200411,27.0000001 L132.969477,27.0014366 C132.436409,27.0015962 132.031995,27.2304795 132.07064,27.5099598 L132.622792,31.4919555 C132.661436,31.7714358 133.143774,32.0001595 133.694495,31.9999999 L141.16286,31.9982442 Z" id="Fill-104" fill="#F5F5F5"></path>
                        <path d="M154.23381,31.9980845 C154.764925,31.9979248 155.13577,31.7690269 155.057705,31.4895287 L153.947471,27.5080769 C153.86956,27.2285787 153.385068,27 152.870824,27 L145.897617,27.0015962 C145.383372,27.0017558 145.013141,27.2306538 145.074795,27.510152 L145.953596,31.4919231 C146.015251,31.7714212 146.500202,32.0001595 147.031317,31.9999999 L154.23381,31.9980845 Z" id="Fill-106" fill="#F5F5F5"></path>
                    </g>
                    <g id="mouse" transform="translate(494.000000, 290.000000)" fill-rule="nonzero">
                        <path d="M3.19744231e-14,14.8166823 C3.19744231e-14,10.8166823 1.00006619,-2.18331768 22.0000662,0.316682318 C43.0000662,2.81668232 60.0957637,17.5378823 55.0000662,25.9272823 C49.9043686,34.3166823 12.5618272,34.3166823 3.19744231e-14,14.8166823 Z" id="Path-2" fill="#D3D3D3"></path>
                        <path d="M30.6828308,2.07510543 C21.5533518,4.27520931 16.6590749,8.7930333 16,15.6285774 C15.5098697,20.7119262 11.7766649,22.3051102 4.80038554,20.4081293 C2.9641414,18.757491 1.34089291,16.8981798 3.90798505e-14,14.8166823 C3.90798505e-14,10.8166823 1.00006619,-2.18331768 22.0000662,0.316682318 C24.9911409,0.672762638 27.9030093,1.27677336 30.6828308,2.07510543 Z" id="Combined-Shape" fill="#E7E7E7"></path>
                        <path d="M20.6260851,6.70542801 C20.3456378,6.94356988 20.0777332,7.1885757 19.8223712,7.44044548 C15.6119968,5.58168836 10.4348679,4.40680095 4.29084026,3.92007546 C4.63973682,3.60571524 5.01682558,3.30281234 5.42436781,3.01428261 C11.4062523,3.57450292 16.4735357,4.80356324 20.6260851,6.70542801 Z" id="Combined-Shape" fill="#D3D3D3"></path>
                        <path d="M46.5812589,30.3570291 C33.4485179,33.1996139 9.55522904,29.649474 1.03769063e-13,14.8166823 C6.66666667,10.2722274 22,15.3333333 46,30 C46.1963866,30.1200141 46.3901396,30.2390238 46.5812589,30.3570291 Z" id="Combined-Shape" fill="#A6A6A6"></path>
                        <path d="M9.46002826,3.61487248 C11.7933616,3.78681384 13.6266949,4.29785711 14.9600283,5.14800229 C17.5615909,6.80678174 6.67385879,3.409562 9.46002826,3.61487248 Z" id="Path-7" stroke="#979797" transform="translate(12.182568, 4.605885) rotate(-5.000000) translate(-12.182568, -4.605885) "></path>
                    </g>
                    <g id="smartphone" transform="translate(600.000000, 289.000000)">
                        <path d="M40.8522589,40.978462 L93.5326575,16.6495584 L60.2426243,2.87846201 L7.56189343,27.2073657 L40.8522589,40.978462 L40.8522589,40.978462 Z M97.1419599,11.5595251 C100.424684,12.9176647 100.718372,15.1133457 97.7944516,16.4638441 L39.5047506,43.3827809 C36.5811625,44.7332793 31.5469433,44.7266348 28.2635546,43.3684952 L2.79212599,32.8319504 C-0.490930492,31.4734786 -0.780299262,29.2777976 2.14328878,27.9276314 L60.4329898,1.00836234 C63.35691,-0.341803771 68.3868104,-0.335159253 71.6701991,1.02264806 L97.1419599,11.5595251 Z" id="Fill-1" fill="#F5F5F5"></path>
                        <polygon id="Fill-3" fill="#00A3DD" points="93.5331227 16.6497245 40.8523918 40.9786281 7.56202632 27.2071996 60.2427572 2.87862812"></polygon>
                        <g id="Group-14" transform="translate(43.000000, 14.000000)">
                            <g id="Group-3" transform="translate(0.000000, 0.387740)">
                                <mask id="mask-4" fill="white">
                                    <use xlink:href="#path-3"></use>
                                </mask>
                                <g id="Clip-2"></g>
                                <path d="M1.0563,3.4331 C0.7513,3.3201 0.4543,3.1851 0.1633,3.0301 C-0.1297,2.8751 -0.0357,2.6871 0.4993,2.4911 L5.6333,0.6121 L6.1093,0.8101 C6.2173,0.8551 6.2543,0.9161 6.2213,0.9941 C6.1883,1.0711 6.0903,1.1411 5.9283,1.2011 L5.1463,1.4921 L5.6573,1.7071 L5.4133,1.7981 C5.2413,1.8631 5.0573,1.8981 4.8633,1.9051 C4.6693,1.9111 4.5143,1.8891 4.3973,1.8391 L4.3103,1.8021 L1.7343,2.7601 C1.5363,2.8331 1.5233,2.9061 1.6923,2.9791 L1.9573,3.0951 L1.0563,3.4331 Z" id="Fill-1" fill="#FFFFFF" mask="url(#mask-4)"></path>
                            </g>
                            <path d="M3.5621,4.75444 C3.2571,4.72644 2.9911,4.67444 2.7621,4.59944 C2.5351,4.52344 2.3441,4.45244 2.1911,4.38544 C1.8851,4.25244 1.7301,4.09344 1.7271,3.90844 C1.7231,3.72444 1.9831,3.53444 2.5041,3.33844 C2.9901,3.15644 3.4401,3.07044 3.8541,3.08044 C4.2661,3.08944 4.6681,3.14944 5.0541,3.25744 C5.1141,3.27544 5.3891,3.35344 5.4761,3.38144 C5.9141,3.51144 6.2471,3.53244 6.4771,3.44244 C6.6491,3.37644 6.6951,3.30544 6.6181,3.23044 C6.5401,3.15544 6.4471,3.09544 6.3381,3.04844 C6.2221,2.99944 6.0931,2.96444 5.9561,2.94244 C5.8181,2.92144 5.6661,2.92644 5.4991,2.95744 L4.6581,2.60044 C5.0491,2.47944 5.4601,2.41844 5.8931,2.41444 C6.3821,2.40944 6.8351,2.49344 7.2501,2.66744 C7.7161,2.86344 7.9581,3.05244 7.9711,3.23544 C7.9851,3.42844 7.7851,3.60544 7.3741,3.76744 L5.8131,4.38244 C5.3561,4.56344 4.9361,4.67744 4.5581,4.72544 C4.1781,4.77444 3.8451,4.78344 3.5621,4.75444 L3.5621,4.75444 Z M5.4741,3.84344 C5.2761,3.82444 5.0381,3.78244 4.7591,3.71944 C4.5081,3.65844 4.3821,3.62944 4.3821,3.62944 C4.1731,3.58644 3.9901,3.56044 3.8301,3.57344 C3.6431,3.58844 3.4881,3.63244 3.3611,3.68044 C3.1881,3.74644 3.0871,3.81544 3.0601,3.88744 C3.0431,3.95644 3.1071,4.02144 3.2511,4.08344 C3.4881,4.18644 3.7671,4.23044 4.0851,4.21744 C4.4051,4.20444 4.7221,4.13644 5.0431,4.01044 L5.4741,3.84344 Z" id="Fill-4" fill="#FFFFFF"></path>
                            <path d="M8.6803,5.24314 C9.1213,5.06214 9.3973,4.89614 9.5093,4.74514 C9.6213,4.59514 9.5613,4.47014 9.3263,4.37114 C9.1013,4.27514 8.8063,4.24914 8.4433,4.29214 C8.1113,4.32914 7.7093,4.44114 7.2433,4.62814 C6.8113,4.80214 6.5493,4.95914 6.4603,5.10014 C6.3483,5.25114 6.4103,5.37814 6.6473,5.48014 C6.8673,5.57514 7.1593,5.60114 7.5233,5.55814 C7.8873,5.51514 8.2733,5.41014 8.6803,5.24314 L8.6803,5.24314 Z M3.8983,5.97014 C3.7393,6.03414 3.5593,6.07014 3.3603,6.07814 C3.1603,6.08614 3.0013,6.06314 2.8823,6.01114 L2.4463,5.81914 L6.7103,4.13314 C7.5103,3.81714 8.2263,3.67414 8.8593,3.70214 C9.4913,3.73014 10.0063,3.82714 10.4063,3.99514 C10.6133,4.08314 10.7693,4.19314 10.8753,4.32614 C10.9803,4.46014 10.9933,4.59514 10.9143,4.73114 C10.7263,5.02014 10.2863,5.30814 9.6013,5.59514 C8.8913,5.89014 8.1913,6.07514 7.4963,6.14814 C6.8133,6.21514 6.2723,6.16114 5.8733,5.98714 C5.6603,5.89514 5.5263,5.79314 5.4653,5.68114 C5.4093,5.56214 5.4513,5.43214 5.5873,5.29214 L3.8983,5.97014 Z" id="Fill-6" fill="#FFFFFF"></path>
                            <path d="M12.8365,5.10204 L12.8365,5.10204 L11.1885,5.80104 L13.8975,5.54804 L14.9445,5.98904 L12.0515,6.22604 L10.5255,7.94004 L9.4575,7.47604 L10.3455,6.55904 C10.5205,6.37504 10.5435,6.30004 10.4015,6.25304 C10.2915,6.21704 10.1505,6.24104 10.0615,6.27904 L9.4395,6.54304 L8.3625,6.99904 L7.4725,6.61204 L13.2795,4.18504 L13.7275,4.37104 C13.8425,4.41804 13.8855,4.48304 13.8565,4.56504 C13.8265,4.64704 13.7385,4.71904 13.5925,4.78104 L12.8365,5.10204 Z" id="Fill-8" fill="#FFFFFF"></path>
                            <path d="M13.7047,6.98874 L14.9867,7.53574 C15.2677,7.39474 15.4307,7.26974 15.4737,7.16274 C15.5187,7.04774 15.4417,6.94674 15.2417,6.86174 C15.0587,6.78374 14.8287,6.75474 14.5587,6.77374 C14.2837,6.79374 14.0017,6.86474 13.7047,6.98874 M13.9267,8.21674 L14.5587,8.48874 C14.0047,8.65974 13.4757,8.74374 12.9717,8.73974 C12.4557,8.74074 11.9967,8.65474 11.5987,8.48074 C11.1147,8.26974 10.9417,8.01474 11.0817,7.71674 C11.2107,7.42374 11.6477,7.11574 12.3937,6.78974 C13.1057,6.47974 13.7927,6.29074 14.4507,6.22574 C15.1277,6.15674 15.7037,6.22174 16.1787,6.42074 C16.6777,6.63074 16.8647,6.88374 16.7437,7.17974 C16.6037,7.47774 16.1737,7.79374 15.4487,8.12574 C15.4057,8.14574 15.3667,8.16374 15.3337,8.17874 C15.3007,8.19474 15.2787,8.20374 15.2677,8.20874 C15.2137,8.23374 15.1717,8.24974 15.1407,8.25674 L12.9567,7.31974 C12.6227,7.47574 12.4307,7.61574 12.3827,7.73974 C12.3147,7.86574 12.3917,7.97774 12.6107,8.07174 C12.7547,8.13474 12.9147,8.17074 13.0947,8.17874 C13.1307,8.18474 13.3227,8.17974 13.3837,8.17274 C13.4257,8.16674 13.4997,8.15474 13.6087,8.15374 C13.7187,8.15274 13.8257,8.17374 13.9267,8.21674" id="Fill-10" fill="#FFFFFF"></path>
                            <path d="M19.8649,8.05954 L15.9969,9.16754 C16.6399,8.66554 17.5629,7.94454 18.2779,7.39254 L17.3799,7.01354 C17.0729,7.24954 15.1269,8.76754 15.0809,8.80454 C15.0329,8.84254 14.9839,8.88154 14.9349,8.91954 C14.7699,9.05154 14.5919,9.23954 14.2419,9.48654 C13.8419,9.76954 13.5639,9.86754 13.1089,9.66754 L12.8659,9.56154 L11.9289,9.99354 L12.3019,10.15754 C13.0269,10.47654 13.3409,10.43954 14.4329,10.19454 C15.3469,9.98554 16.5919,9.63454 16.5919,9.63454 C16.5919,9.63454 19.8999,8.68854 20.7629,8.43754 L19.8649,8.05954 Z" id="Fill-12" fill="#FFFFFF"></path>
                        </g>
                        <path d="M99.8087373,14.2664022 C99.8060795,14.3378308 99.7927904,14.4089271 99.7801659,14.4796912 C99.7735213,14.5198906 99.7675413,14.5600899 99.7575745,14.6002893 C99.7412954,14.6627477 99.7187041,14.7252062 99.6941193,14.7870002 C99.6824914,14.817565 99.6738536,14.848462 99.6599001,14.8786946 C99.6183718,14.9697245 99.5695346,15.0607544 99.5103984,15.1501231 C99.5040861,15.1597577 99.495116,15.1693922 99.4884715,15.1790268 C99.4339865,15.2584288 99.3731891,15.3374986 99.3047506,15.4149072 C99.277508,15.4461364 99.2452821,15.4767012 99.215714,15.507266 C99.1618934,15.56308 99.1064117,15.6188939 99.0449499,15.6737112 C99.0027572,15.7115849 98.9565778,15.7481298 98.9107306,15.7850069 C98.8519267,15.8328474 98.7917938,15.8800235 98.7273419,15.9265351 C98.6648835,15.9717178 98.5971094,16.0155716 98.5286708,16.0594255 C98.4542522,16.1075982 98.3804981,16.155771 98.299435,16.2022826 C98.2741858,16.2169005 98.2489366,16.2315185 98.2226908,16.2458042 C98.087807,16.320555 97.9469433,16.3933125 97.7947838,16.4637444 L39.5047506,43.3830135 C39.3399665,43.458761 39.1668768,43.5291929 38.9894682,43.5966348 C38.9366443,43.6169005 38.8828237,43.6355052 38.8293353,43.6547743 C38.7007639,43.7009537 38.5692024,43.7444753 38.4353154,43.7863358 C38.367209,43.8075982 38.2987705,43.8285285 38.2293353,43.8487942 C38.0864781,43.8903225 37.9399665,43.9285285 37.7917938,43.9654055 C37.7356476,43.9790268 37.6811625,43.993977 37.6243519,44.0075982 C37.4183718,44.0551065 37.2084051,44.0989603 36.9944516,44.1374986 C36.9542522,44.1451398 36.9130562,44.1504554 36.8725247,44.1574321 C36.6964449,44.1876647 36.5187041,44.2152394 36.3386376,44.2398241 C36.2615612,44.2501231 36.1831559,44.258761 36.105415,44.2683956 C35.9562456,44.2860035 35.8060795,44.3022826 35.6542522,44.3162361 C35.5705313,44.3242095 35.4861459,44.3311863 35.4010961,44.3378308 C35.2768436,44.3474653 35.1515944,44.3541099 35.026013,44.3610866 C34.871528,44.3693922 34.7163785,44.376369 34.5608968,44.3810201 C34.4383054,44.3840102 34.315714,44.3870002 34.1927904,44.3879969 C34.0781725,44.3889936 33.9635546,44.3889936 33.8486044,44.3876647 C33.7067439,44.3860035 33.5648835,44.3830135 33.423023,44.3783623 C33.3296675,44.3750401 33.236312,44.37205 33.1432888,44.3673989 C32.977508,44.3590932 32.8120595,44.348462 32.6469433,44.3358374 C32.5798336,44.3305218 32.5120595,44.3265351 32.4446177,44.3208873 C32.2153818,44.3006215 31.9868104,44.2770334 31.7602323,44.2481298 C31.7187041,44.2431464 31.6778403,44.2361697 31.636312,44.2301896 C31.45093,44.2056049 31.2668768,44.1780301 31.0844848,44.1471331 C31.0117273,44.1348407 30.9399665,44.1215517 30.8678735,44.1085949 C30.7137207,44.0803557 30.5615612,44.0501231 30.4103984,44.0178972 C30.3356476,44.0019504 30.2602323,43.9860035 30.1858137,43.9687278 C30.0343187,43.9341763 29.8861459,43.8959703 29.7386376,43.8567677 C29.6675413,43.838163 29.5954482,43.820555 29.5253486,43.8006215 C29.3937871,43.7634122 29.2658801,43.7218839 29.1376409,43.6810201 C29.0476077,43.6524487 28.9552489,43.6258706 28.8675413,43.5953059 C28.6608968,43.5242095 28.4585712,43.4491265 28.2635546,43.3687278 L2.79212599,32.8318507 C2.70342167,32.7949736 2.61837183,32.7570999 2.53365423,32.7192261 C2.48448479,32.696967 2.43564758,32.6740434 2.38780705,32.6517843 C2.33398645,32.6265351 2.28116253,32.6009537 2.22933529,32.5750401 C2.18282366,32.5517843 2.13697649,32.5285285 2.09179376,32.5046082 C2.0422921,32.4786946 1.99345489,32.4524487 1.94561436,32.4262029 C1.90242499,32.4022826 1.85956785,32.3783623 1.81803961,32.3537776 C1.77119575,32.3268673 1.72601303,32.2996248 1.68116253,32.27205 C1.64162765,32.2477976 1.60176054,32.2232128 1.56388678,32.1986281 C1.52069742,32.1707211 1.47916918,32.1424819 1.43797316,32.114575 C1.40142831,32.0889936 1.36521569,32.0640766 1.32999974,32.0384952 C1.29079708,32.0099238 1.25292333,31.9813524 1.21504957,31.9524487 C1.18215921,31.9268673 1.14893662,31.9012859 1.11704293,31.8757045 C1.08116253,31.8461364 1.04727549,31.8165683 1.01305622,31.7870002 C0.983155887,31.7610866 0.952923329,31.735173 0.9243519,31.7089271 C0.892458213,31.6790268 0.861893429,31.6487942 0.831328645,31.6185617 C0.804750572,31.5923158 0.777840273,31.56607 0.752923329,31.5394919 C0.724019675,31.5089271 0.697109376,31.4780301 0.670199077,31.4471331 C0.646943263,31.4208873 0.623355223,31.3943092 0.602092764,31.3677311 C0.576511369,31.3365019 0.552923329,31.3046082 0.529667515,31.2730467 C0.510066186,31.2464687 0.489800405,31.2202228 0.47152798,31.1936447 C0.44960107,31.161751 0.429999741,31.1291929 0.410066186,31.0966348 C0.393787116,31.0703889 0.376843595,31.0444753 0.361893429,31.0182295 C0.343288778,30.9850069 0.32767416,30.9517843 0.31139509,30.9185617 C0.298770505,30.8926481 0.284817017,30.8670667 0.27318911,30.8408208 C0.258238944,30.8066015 0.245946585,30.7727145 0.233322,30.7384952 C0.2243519,30.7132461 0.213388445,30.6879969 0.205415023,30.66308 C0.193787116,30.6268673 0.185813695,30.5909869 0.176511369,30.5551065 C0.170863528,30.5315185 0.163222332,30.5079304 0.15857117,30.4840102 C0.150265522,30.4441431 0.145946585,30.4046082 0.140963196,30.3647411 C0.138305389,30.3448075 0.133986452,30.3252062 0.132657548,30.3049404 C0.127341934,30.2458042 0.125680804,30.1860035 0.12767416,30.1265351 L0.000763860628,34.0142427 C-0.00122949485,34.0740434 0.000763860628,34.1335118 0.00574724933,34.1933125 C0.0074083789,34.2129138 0.0113950899,34.2328474 0.0140528972,34.2527809 C0.0190362859,34.2923158 0.0233552228,34.3321829 0.0316608706,34.3723823 C0.0366442593,34.3959703 0.0439532294,34.4195584 0.0499332958,34.4431464 C0.0589033955,34.4790268 0.0668768174,34.5149072 0.0788369503,34.5507876 C0.0868103723,34.5760368 0.0974416015,34.6012859 0.106743927,34.6265351 C0.119700738,34.6607544 0.131660871,34.6946414 0.146611037,34.7288607 C0.157906718,34.7551065 0.171860206,34.7810201 0.184817017,34.807266 C0.201096087,34.8401564 0.216710704,34.8730467 0.23498313,34.9059371 C0.249933296,34.9325152 0.267209043,34.958761 0.283488113,34.9850069 C0.303089442,35.017565 0.322690771,35.0497909 0.344617681,35.0816846 C0.362890106,35.1082627 0.383155887,35.1348407 0.403089442,35.1614188 C0.426345256,35.1926481 0.44960107,35.2242095 0.474850239,35.255771 C0.49677715,35.2826813 0.520697415,35.3092594 0.543953229,35.3358374 C0.570531302,35.3664022 0.597109376,35.396967 0.625680804,35.4271996 C0.650929974,35.4537776 0.678172499,35.4806879 0.704750572,35.507266 C0.735315356,35.5371663 0.765547914,35.5670667 0.797773827,35.596967 C0.826345256,35.6232128 0.856245588,35.6491265 0.88614592,35.6750401 C0.92036519,35.7046082 0.954252233,35.7341763 0.990464857,35.7634122 C1.02202632,35.7893258 1.05524891,35.8149072 1.0884715,35.8404886 C1.12601303,35.86906 1.16388678,35.8979637 1.20308944,35.9265351 C1.23830539,35.9517843 1.27451801,35.9773657 1.31106286,36.0022826 C1.35225888,36.0305218 1.39378712,36.058761 1.43697649,36.086668 C1.47551469,36.1112527 1.51471735,36.1355052 1.55458446,36.1600899 C1.59910273,36.1873324 1.64428546,36.2149072 1.69112931,36.2418175 C1.73265755,36.2664022 1.77551469,36.2903225 1.81870406,36.3142427 C1.86654459,36.3404886 1.9153818,36.3667344 1.96521569,36.3929803 C2.01039841,36.4165683 2.05624559,36.4398241 2.10242499,36.4634122 C2.15458446,36.4889936 2.20740838,36.5142427 2.26089675,36.5394919 C2.30873728,36.5620833 2.35757449,36.5850069 2.40707615,36.6069338 C2.43132864,36.6178972 2.45358778,36.6291929 2.47784027,36.6398241 C2.53930207,36.6667344 2.60176054,36.6933125 2.66554791,36.7195584 L28.1369765,47.2564354 C28.3210296,47.3325152 28.5107306,47.4046082 28.705415,47.47205 C28.7167107,47.476369 28.7290031,47.4796912 28.740631,47.4833457 C28.8290031,47.5139105 28.9206974,47.5404886 29.0107306,47.56906 C29.1210296,47.604276 29.2296675,47.6418175 29.3426243,47.6743756 C29.3608968,47.679359 29.3804981,47.683678 29.3987705,47.6889936 C29.4685379,47.7085949 29.540631,47.7262029 29.6117273,47.7448075 C29.7203652,47.773379 29.8276742,47.8039437 29.9383054,47.8305218 C29.9781725,47.8401564 30.0193685,47.8477976 30.0592356,47.8567677 C30.133322,47.8740434 30.2087373,47.889658 30.2838203,47.9059371 C30.361229,47.9225484 30.4366443,47.9404886 30.5147173,47.9561032 C30.589136,47.9707211 30.6658801,47.9826813 30.7409632,47.9963025 C30.8130562,48.0095916 30.884817,48.0228806 30.9575745,48.0355052 C31.0007639,48.0424819 31.0429566,48.0511198 31.0861459,48.0580966 C31.226013,48.0806879 31.3678735,48.0996248 31.5094017,48.1185617 C31.55093,48.1238773 31.5917938,48.130854 31.6336542,48.1361697 C31.643621,48.1374986 31.6535878,48.1391597 31.6635546,48.1404886 C31.8599001,48.1647411 32.0572423,48.1863358 32.2555811,48.204276 C32.2765114,48.2062693 32.2971094,48.2069338 32.3180396,48.2089271 C32.3854815,48.2149072 32.4529233,48.2185617 32.520033,48.2238773 C32.6379732,48.2325152 32.7559134,48.2434786 32.8741858,48.2497909 C32.9216941,48.2527809 32.9688702,48.2531132 33.0163785,48.2554388 C33.109734,48.2597577 33.2030894,48.26308 33.2961127,48.2664022 C33.3751825,48.26906 33.4545845,48.2737112 33.5339865,48.2753723 C33.5964449,48.2767012 33.6592356,48.2747079 33.7216941,48.2757045 C33.8369765,48.2767012 33.9512622,48.2770334 34.0658801,48.2760368 C34.130332,48.2753723 34.1947838,48.2773657 34.2585712,48.2760368 C34.3173752,48.2750401 34.3751825,48.2707211 34.4343187,48.2687278 C34.5898004,48.2644089 34.7446177,48.2574321 34.8991027,48.2491265 C34.9645512,48.245472 35.0309964,48.2448075 35.0961127,48.2408208 C35.1559134,48.2368341 35.2143851,48.2301896 35.2741858,48.2258706 C35.3592356,48.2192261 35.443621,48.2122494 35.5280064,48.204276 C35.6795014,48.1903225 35.8293353,48.1743756 35.9785047,48.1564354 C36.0562456,48.1468009 36.1346509,48.138163 36.2117273,48.127864 C36.2456144,48.1232128 36.2798336,48.1198906 36.3137207,48.1155716 C36.4595678,48.0946414 36.6027572,48.0700567 36.7456144,48.045472 C36.7861459,48.038163 36.8273419,48.0328474 36.8675413,48.0255384 C37.0814948,47.986668 37.2914615,47.9431464 37.4974416,47.8953059 C37.5542522,47.8823491 37.6087373,47.8670667 37.6648835,47.8531132 C37.8133884,47.8165683 37.9595678,47.7783623 38.1027572,47.7368341 C38.1721924,47.7169005 38.2402987,47.6953059 38.3084051,47.6743756 C38.3731891,47.6541099 38.440631,47.6355052 38.5044183,47.614575 C38.5721924,47.5919836 38.636312,47.5664022 38.702425,47.5428142 C38.7559134,47.5235451 38.8100662,47.5046082 38.8625579,47.4846746 C39.0399665,47.4172328 39.2130562,47.3468009 39.3781725,47.2710534 L97.6678735,20.351452 C97.6911293,20.3408208 97.7143851,20.3301896 97.7376409,20.3192261 C97.8638868,20.2590932 97.981827,20.196967 98.0957805,20.1338441 C98.1220263,20.1192261 98.1472755,20.1046082 98.1728569,20.0899902 C98.2077406,20.0703889 98.2446177,20.0504554 98.2785047,20.0305218 C98.3226908,20.0036115 98.3595678,19.9750401 98.4020928,19.9477976 C98.4701991,19.9036115 98.5379732,19.8597577 98.6004316,19.814575 C98.6220263,19.7989603 98.6472755,19.7846746 98.6678735,19.76906 C98.709734,19.738163 98.7446177,19.7052726 98.7838203,19.6730467 C98.8296675,19.6361697 98.8758469,19.5996248 98.9180396,19.561751 C98.933322,19.5481298 98.9519267,19.535173 98.9665446,19.5215517 C99.0113951,19.4800235 99.0482722,19.4374986 99.0888037,19.3953059 C99.1183718,19.3647411 99.15093,19.3341763 99.1781725,19.3029471 C99.1851492,19.2949736 99.1944516,19.2870002 99.2014283,19.2790268 C99.2615612,19.2092594 99.3130562,19.138163 99.3615612,19.0670667 C99.3685379,19.0574321 99.3771758,19.0481298 99.3838203,19.038163 C99.3844848,19.0368341 99.3851492,19.0361697 99.3858137,19.035173 C99.4399665,18.9527809 99.4864781,18.8697245 99.5256808,18.7860035 C99.5286708,18.7796912 99.5299997,18.7727145 99.533322,18.7667344 C99.5469433,18.7361697 99.5555811,18.7056049 99.567209,18.6753723 C99.5864781,18.6258706 99.6087373,18.5770334 99.623023,18.5271996 C99.6266775,18.5142427 99.6270097,18.5009537 99.6306642,18.4879969 C99.6409632,18.4481298 99.646611,18.4079304 99.6532556,18.3677311 C99.6602323,18.3291929 99.671528,18.2913192 99.6755147,18.2527809 C99.6785047,18.2198906 99.6804981,18.1873324 99.681827,18.1544421 L99.8087373,14.2664022 Z" id="Fill-5" fill="#D3D3D3"></path>
                        <g id="Group-4" transform="translate(68.934044, 2.421706)" fill="#A6A6A6">
                            <path d="M9.05841465,3.48389914 C8.8577502,3.40084266 8.54778342,3.40150711 8.36904588,3.48389914 C8.18997611,3.56662339 8.20758408,3.70084266 8.40858076,3.78389914 L16.0557568,6.94735429 C16.2564213,7.03041076 16.5643947,7.03107522 16.7431323,6.94835096 C16.922202,6.86562671 16.9062552,6.73007854 16.7055907,6.64702206 L9.05841465,3.48389914" id="Fill-8"></path>
                            <path d="M11.0414047,7.2188493 C11.3178166,7.09127455 11.2922352,6.88429781 10.9796107,6.75506193 L9.12711897,5.98861674 C8.81715219,5.86004532 8.340408,5.85971309 8.06399604,5.98728784 C7.78758408,6.11486259 7.81515883,6.32283601 8.12579006,6.45107522 L9.97828176,7.2175204 C10.2905741,7.34675628 10.7653249,7.34675628 11.0414047,7.2188493" id="Fill-10"></path>
                            <path d="M1.61579006,0.124962259 C1.21612229,-0.0404862457 0.6021688,-0.0421473752 0.244361491,0.122968904 C-0.111452462,0.287420731 -0.0739109339,0.555194817 0.32575684,0.720643322 C0.725092388,0.885759602 1.3393781,0.887752957 1.69519206,0.72330113 C2.05266714,0.558184851 2.01512561,0.290078538 1.61579006,0.124962259" id="Fill-12"></path>
                        </g>
                    </g>
                </g>
            </g>
        </g>
    </g>
</svg>