<?xml version="1.0" encoding="utf-8"?>
<!-- Generator: Adobe Illustrator 21.0.0, SVG Export Plug-In . SVG Version: 6.00 Build 0)  -->
<svg xmlns="http://www.w3.org/2000/svg" xmlns:xlink="http://www.w3.org/1999/xlink" version="1.1" id="Layer_1" x="0px" y="0px" width="900px" height="465px" viewBox="0 0 300 155" style="enable-background:new 0 0 300 155;" xml:space="preserve">
<style type="text/css">
	.st0{fill:#FFFFFF;}
	.st1{fill:#EDF6FC;}
	.st2{fill:#5FB0E5;}
	.st3{fill:none;stroke:#0686D8;stroke-width:1.5;stroke-miterlimit:10;}
	.st4{fill:#D2E9F7;}
	.st5{fill:#9ECFEF;}
	.st6{opacity:0.3;fill:#0565A2;}
	.st7{fill:#0686D8;}
	.st8{font-family:'Montserrat-Bold';}
	.st9{font-size:10.9591px;}
	.st10{opacity:0.3;}
	.st11{fill:#0565A2;}
</style>
<rect x="-24" y="-79" class="st0" width="500" height="250"/>
<path class="st1" d="M57.2,70.6H36.3c-5.2,0-9.4-4.2-9.4-9.4v0c0-5.2,4.2-9.4,9.4-9.4h20.9c5.2,0,9.4,4.2,9.4,9.4v0  C66.6,66.3,62.4,70.6,57.2,70.6z"/>
<path class="st1" d="M427.7,102.1h-20.9c-5.2,0-9.4-4.2-9.4-9.4v0c0-5.2,4.2-9.4,9.4-9.4h20.9c5.2,0,9.4,4.2,9.4,9.4v0  C437.2,97.9,433,102.1,427.7,102.1z"/>
<path class="st1" d="M74.6,16h288.9c6.2,0,11.2,5,11.2,11.2l0,0c0,5-4.1,9.1-9.1,9.1h-21.8c-3,0-5.5,2.5-5.5,5.5v2.9  c0,3,2.5,5.5,5.5,5.5h53.5c5,0,9.1,4.1,9.1,9.1l0,0c0,5-4,9.1-9,9.1l-84.1,0.4c-3,0-5.5,2.5-5.5,5.5v1.4c0,3.1,2.5,5.5,5.5,5.5  l49.6-0.4c5.1,0,9.2,4.1,9.2,9.1l0,2.2c0,5-4.1,9.1-9.1,9.1h-65.9c-3,0-5.5,2.5-5.5,5.5v5.2c0,3,2.4,5.5,5.4,5.5l111,1.4  c7.8,0.1,14.1,6.5,14.1,14.3v0c0,7.9-6.4,14.3-14.3,14.3h-361c-9.5,0-17.1-7.7-17.1-17.1l0,0c0-9.5,7.7-17.2,17.2-17.1l37.1,0.2  c3.1,0,5.5-2.5,5.5-5.5v-2.5c0-3-2.5-5.5-5.5-5.5H57.2c-5,0-9.1-4.1-9.1-9.1v-0.7c0-5,4.1-9.1,9.1-9.1h77.2c3,0,5.5-2.5,5.5-5.5l0,0  c0-3-2.5-5.5-5.5-5.5H82c-5,0-9.1-4.1-9.1-9.1v-1.9c0-5,4.1-9.1,9.1-9.1h59.4c3,0,5.5-2.5,5.5-5.5v-4.6c0-3-2.5-5.5-5.5-5.5H74.6  c-5,0-9.1-4.1-9.1-9.1v0C65.5,20.1,69.6,16,74.6,16z"/>
<path id="XMLID_29_" class="st2" d="M177.8,16c-2.7,0.7-3.3,1.3-4,4c-0.7-2.7-1.3-3.3-4-4c2.7-0.7,3.3-1.3,4-4  C174.6,14.7,175.2,15.3,177.8,16z"/>
<circle id="XMLID_584_" class="st2" cx="57.4" cy="20" r="1"/>
<circle id="XMLID_23_" class="st2" cx="243" cy="12" r="1"/>
<circle id="XMLID_27_" class="st2" cx="365" cy="43.9" r="1"/>
<circle id="XMLID_21_" class="st2" cx="113.6" cy="73.7" r="1"/>
<circle id="XMLID_31_" class="st2" cx="318.3" cy="87.5" r="1"/>
<circle id="XMLID_16_" class="st2" cx="125.8" cy="23.2" r="1.9"/>
<circle id="XMLID_22_" class="st2" cx="40.9" cy="102.1" r="1.4"/>
<circle id="XMLID_24_" class="st2" cx="276" cy="27.2" r="1.7"/>
<path id="XMLID_17_" class="st2" d="M414.8,40.9c-1.7,0.5-2.1,0.8-2.6,2.6c-0.5-1.7-0.8-2.1-2.6-2.6c1.7-0.5,2.1-0.8,2.6-2.6  C412.7,40,413.1,40.4,414.8,40.9z"/>
<path id="XMLID_20_" class="st2" d="M42.6,40.9c-1.3,0.3-1.6,0.6-1.9,1.9c-0.3-1.3-0.6-1.6-1.9-1.9c1.3-0.3,1.6-0.6,1.9-1.9  C41,40.3,41.3,40.5,42.6,40.9z"/>
<path id="XMLID_13_" class="st2" d="M207.3,6.4c-1.3,0.3-1.6,0.6-1.9,1.9c-0.3-1.3-0.6-1.6-1.9-1.9c1.3-0.3,1.6-0.6,1.9-1.9  C205.7,5.8,206,6.1,207.3,6.4z"/>
<path id="XMLID_26_" class="st2" d="M333,19.3c-1.8,0.5-2.1,0.8-2.6,2.6c-0.5-1.8-0.8-2.1-2.6-2.6c1.8-0.5,2.1-0.8,2.6-2.6  C330.8,18.5,331.2,18.9,333,19.3z"/>
<path id="XMLID_18_" class="st2" d="M383.8,76.8c-2.1,0.6-2.6,1-3.1,3.1c-0.6-2.1-1-2.6-3.1-3.1c2.1-0.6,2.6-1,3.1-3.1  C381.2,75.8,381.7,76.2,383.8,76.8z"/>
<path id="XMLID_28_" class="st2" d="M86.9,44.8c-2.1,0.6-2.6,1-3.1,3.1c-0.6-2.1-1-2.6-3.1-3.1c2.1-0.6,2.6-1,3.1-3.1  C84.3,43.8,84.8,44.3,86.9,44.8z"/>
<path id="XMLID_19_" class="st2" d="M99.5,88.3c-2.2,0.6-2.7,1.1-3.3,3.3c-0.6-2.2-1.1-2.7-3.3-3.3c2.2-0.6,2.7-1.1,3.3-3.3  C96.9,87.2,97.3,87.7,99.5,88.3z"/>
<g>
	<g id="XMLID_4_">
		<path id="XMLID_186_" class="st2" d="M274.5,117.4H170c-1.2,0-2.3-1-2.3-2.3V56.7c0-2.3,1.9-4.2,4.2-4.2h100.6    c2.3,0,4.2,1.9,4.2,4.2v58.4C276.8,116.4,275.8,117.4,274.5,117.4z"/>
		<path id="XMLID_3_" class="st3" d="M265.5,52.5h7.1c2.3,0,4.2,1.9,4.2,4.2v27.4"/>
		<path id="XMLID_2_" class="st3" d="M178.8,52.5h-7.1c-2.3,0-4.2,1.9-4.2,4.2v29.4"/>
		<rect id="XMLID_184_" x="173.6" y="58.8" class="st0" width="97.4" height="51.3"/>
		<rect id="XMLID_183_" x="205.8" y="127.2" class="st4" width="32.9" height="19.5"/>
		<rect id="XMLID_182_" x="205.8" y="127.2" class="st5" width="32.9" height="9.7"/>
		<rect id="XMLID_181_" x="205.8" y="127.2" class="st3" width="32.9" height="19.5"/>
		<path id="XMLID_180_" class="st0" d="M276.8,115H167.7v7.6c0,4,3.2,7.2,7.2,7.2h94.7c4,0,7.2-3.2,7.2-7.2V115z"/>
		<path id="XMLID_6_" class="st3" d="M257.8,115h-90.1v7.6c0,4,3.2,7.2,7.2,7.2h82.7"/>
		<line id="XMLID_178_" class="st3" x1="199.4" y1="147" x2="245.5" y2="147"/>
	</g>
	<polygon class="st6" points="264.2,52.5 181.3,52.5 184.3,109.9 261.2,109.9  "/>
	<g id="XMLID_1_">
		<g id="XMLID_291_">
			<path id="XMLID_278_" class="st0" d="M261.2,109.9v-84c0-2.5-2.1-4.6-4.6-4.6h-67.7c-2.5,0-4.6,2.1-4.6,4.6v84L261.2,109.9z"/>
			<path id="XMLID_288_" class="st4" d="M184.3,33.2v-8c0-2.1,1.7-3.9,3.9-3.9h69.2c2.1,0,3.9,1.7,3.9,3.9v8H184.3z"/>
			<path id="XMLID_276_" class="st3" d="M184.3,109.6V25.1c0-2.1,1.7-3.9,3.9-3.9h8.1h2.2"/>
			<path id="XMLID_277_" class="st3" d="M211.7,21.3h45.6c2.1,0,3.9,1.7,3.9,3.9v78.5"/>
			<line id="XMLID_285_" class="st3" x1="202.1" y1="21.3" x2="207.4" y2="21.3"/>
			<line id="XMLID_284_" class="st3" x1="184.3" y1="33.4" x2="261.2" y2="33.4"/>
			<line id="XMLID_283_" class="st3" x1="193.1" y1="27.9" x2="195.2" y2="27.9"/>
			<line id="XMLID_11_" class="st3" x1="199.3" y1="27.9" x2="201.3" y2="27.9"/>
			<line id="XMLID_10_" class="st3" x1="205.4" y1="27.9" x2="207.5" y2="27.9"/>
			<rect id="XMLID_279_" x="190.3" y="84.5" class="st5" width="17.1" height="22.2"/>
			<rect id="XMLID_287_" x="214.2" y="84.5" class="st4" width="17.1" height="22.2"/>
			<rect id="XMLID_290_" x="238.3" y="84.5" class="st2" width="17.1" height="22.2"/>
			<line id="XMLID_280_" class="st3" x1="210.8" y1="80.5" x2="234.7" y2="80.5"/>
			<rect x="190.3" y="40.4" class="st4" width="65.1" height="36.4"/>
			<polygon class="st2" points="255.4,52.7 252.6,52.7 248.5,55.5 243.3,55.5 239.3,55.5 236.5,59.4 231.3,63.1 221.2,63.2      218.4,61.1 213.2,63.7 203.2,63.7 193.1,72.8 190.3,72.8 190.3,76.8 255.4,76.8    "/>
			<polyline class="st3" points="190.3,72.8 193.1,72.8 203.2,63.7 213.2,63.7 218.4,61.1 221.2,63.2 231.3,63.1 236.5,59.4      239.3,55.5 243.3,55.5 248.5,55.5 252.6,52.7 255.4,52.7    "/>
		</g>
	</g>
	<g id="XMLID_494_">
		<g id="XMLID_502_">
			<line id="XMLID_512_" class="st3" x1="327.3" y1="52.6" x2="331.1" y2="56.4"/>
			<path id="XMLID_509_" class="st4" d="M309.3,34.7c-5.1,5.1-5.1,13.3,0,18.4c5.1,5.1,13.3,5.1,18.4,0c5.1-5.1,5.1-13.3,0-18.4     C322.6,29.6,314.4,29.6,309.3,34.7z M325.5,50.9c-3.9,3.9-10.1,3.9-14,0c-3.9-3.9-3.9-10.1,0-14c3.9-3.9,10.1-3.9,14,0     C329.4,40.8,329.4,47,325.5,50.9z"/>
			
				<ellipse id="XMLID_508_" transform="matrix(0.7071 -0.7071 0.7071 0.7071 62.261 238.092)" class="st3" cx="318.5" cy="43.9" rx="13" ry="13"/>
			<path id="XMLID_507_" class="st3" d="M311.8,38.9c3.5-3.5,9.1-3.5,12.6,0"/>
			
				<rect id="XMLID_506_" x="333.5" y="52.8" transform="matrix(0.7071 -0.7071 0.7071 0.7071 55.0094 255.5996)" class="st5" width="5.1" height="17.2"/>
			<path id="XMLID_505_" class="st3" d="M337.7,59.5l-6-6l-3.6,3.6l11.3,11.3c0.5,0.5,1.3,0.5,1.9,0l1.8-1.8c0.5-0.5,0.5-1.3,0-1.9     l-0.8-0.8l-0.9-0.9"/>
			<line id="XMLID_504_" class="st3" x1="340.6" y1="62.3" x2="338.7" y2="60.4"/>
			<line id="XMLID_503_" class="st3" x1="330.7" y1="59.8" x2="334.5" y2="56"/>
		</g>
		<line id="XMLID_501_" class="st3" x1="297.2" y1="34.9" x2="305.4" y2="34.9"/>
		<line id="XMLID_500_" class="st3" x1="297.2" y1="39.3" x2="303.7" y2="39.3"/>
		<line id="XMLID_499_" class="st3" x1="287.5" y1="43.8" x2="303.7" y2="43.8"/>
		<line id="XMLID_498_" class="st3" x1="287.4" y1="48.3" x2="303.7" y2="48.3"/>
		<line id="XMLID_497_" class="st3" x1="287.4" y1="52.7" x2="305.4" y2="52.7"/>
		<line id="XMLID_496_" class="st3" x1="287.4" y1="57.2" x2="311" y2="57.2"/>
		<text id="XMLID_495_" transform="matrix(1 0 0 1 287.5106 40.551)" class="st7 st8 st9">A</text>
	</g>
	<g class="st10">
		<path class="st11" d="M198.4,90.2c0-1.5-1.2-2.7-2.7-2.7h-28v26.7H167v8.3c0,4.4,3.6,7.9,7.9,7.9h23.5V90.2z"/>
		<path class="st11" d="M199.8,146.3h-0.4v0.4C199.6,146.5,199.7,146.4,199.8,146.3z"/>
	</g>
	<g id="XMLID_782_">
		<g id="XMLID_783_">
			<path id="XMLID_802_" class="st2" d="M194.6,144h-75.4c-0.5,0-1-0.4-1-1V89.3c0-0.5,0.5-1,1-1h75.4c0.5,0,1,0.5,1,1V143     C195.6,143.5,195.2,144,194.6,144z"/>
			<line id="XMLID_801_" class="st3" x1="127.1" y1="88.3" x2="131.4" y2="88.3"/>
			<path id="XMLID_800_" class="st3" d="M133.6,88.3h60.1c1.1,0,1.9,0.9,1.9,1.9V142c0,1.1-0.9,1.9-1.9,1.9h-73.6     c-1.1,0-1.9-0.9-1.9-1.9V90.2c0-1.1,0.9-1.9,1.9-1.9h4.6"/>
			<rect id="XMLID_799_" x="121.9" y="92.7" class="st0" width="69.5" height="45.2"/>
			<path id="XMLID_798_" class="st0" d="M194.3,147h-75.6c-1.8,0-3.4-1.3-3.7-3.1l-0.5-3.3h35l1.3,1.9h9.7l1.4-1.9h36.9l-0.5,2.9     C198.1,145.6,196.3,147,194.3,147z"/>
			<path id="XMLID_797_" class="st3" d="M194.3,147h-75.6c-1.8,0-3.4-1.3-3.7-3.1l-0.5-3.3h35l1.3,1.9h9.7l1.4-1.9h36.9l-0.5,2.9     C198.1,145.6,196.3,147,194.3,147z"/>
			<g id="XMLID_784_">
				<polygon id="XMLID_796_" class="st2" points="172.3,100.2 162.2,100.2 152,100.2 141.8,100.2 136.7,109 157.1,132.1 177.4,109           "/>
				<polygon id="XMLID_795_" class="st3" points="172.3,100.2 162.2,100.2 152,100.2 141.8,100.2 136.7,109 157.1,132.1 177.4,109           "/>
				<line id="XMLID_794_" class="st3" x1="136.7" y1="109" x2="177.4" y2="109"/>
				<line id="XMLID_793_" class="st3" x1="157.1" y1="132.1" x2="146.9" y2="109"/>
				<line id="XMLID_792_" class="st3" x1="157.1" y1="131.6" x2="167.2" y2="108.4"/>
				<line id="XMLID_791_" class="st3" x1="157.1" y1="109" x2="157.1" y2="131.6"/>
				<line id="XMLID_790_" class="st3" x1="141.8" y1="100.2" x2="146.9" y2="109"/>
				<line id="XMLID_789_" class="st3" x1="152" y1="100.2" x2="157.1" y2="109"/>
				<line id="XMLID_788_" class="st3" x1="162.2" y1="100.2" x2="167.2" y2="109"/>
				<line id="XMLID_787_" class="st3" x1="172.3" y1="100.2" x2="167.2" y2="109"/>
				<line id="XMLID_786_" class="st3" x1="162.2" y1="100.2" x2="157.1" y2="109"/>
				<line id="XMLID_785_" class="st3" x1="152" y1="100.2" x2="146.9" y2="109"/>
			</g>
		</g>
	</g>
	<g class="st10">
		<path class="st11" d="M267.5,105.2h-0.3h-0.9H266h-8.8h-1.4l-3.6,7.5h5v17.8h0.5v-0.7h12c4,0,7.2-3.2,7.2-7.2v-7.4V115v-9.8H267.5    z"/>
		<path class="st11" d="M272.9,93l2.4,2.4c-0.9,1.5-1.6,3.2-2,4.9l-3.4,0c-0.9,0-1.7,0.3-2.4,1c-0.6,0.6-1,1.5-1,2.4l0,1.6l0.7,0h0    l0.8,0l0,0h8.8V85.3c-0.7,0.1-1.3,0.4-1.7,0.9l-2.1,2.1c-0.6,0.6-1,1.5-1,2.3C272,91.6,272.3,92.4,272.9,93z"/>
	</g>
	<g id="XMLID_7_">
		<path id="XMLID_42_" class="st0" d="M318.3,105.2v-1.5c0-1.4-1.1-2.6-2.6-2.6l-4,0c-0.5-2.1-1.3-4-2.4-5.7l2.8-2.8    c1-1,1-2.6,0-3.6l-2.1-2.1c-1-1-2.6-1-3.6,0l-2.8,2.8c-1.7-1.1-3.7-1.9-5.7-2.4v-4c0-1.4-1.2-2.6-2.6-2.6h-3    c-1.4,0-2.6,1.2-2.6,2.6v4c-2,0.5-3.9,1.3-5.7,2.3l-2.8-2.8c-1-1-2.6-1-3.6,0l-2.1,2.1c-1,1-1,2.6,0,3.6l2.8,2.8    c-1.1,1.7-1.9,3.7-2.4,5.7l-4,0c-1.4,0-2.6,1.1-2.6,2.6l0,1.6h16.3c0-4.5,3.7-8.2,8.2-8.2c4.5,0,8.2,3.6,8.2,8.2H318.3z"/>
		<path id="XMLID_294_" class="st3" d="M318.3,105.2v-1.5c0-1.4-1.1-2.6-2.6-2.6l-4,0c-0.5-2.1-1.3-4-2.4-5.7l2.8-2.8    c1-1,1-2.6,0-3.6l-2.1-2.1c-1-1-2.6-1-3.6,0l-2.8,2.8c-1.7-1.1-3.7-1.9-5.7-2.4v-4c0-1.4-1.2-2.6-2.6-2.6h-3    c-1.4,0-2.6,1.2-2.6,2.6v4c-2,0.5-3.9,1.3-5.7,2.3l-2.8-2.8c-1-1-2.6-1-3.6,0l-2.1,2.1c-1,1-1,2.6,0,3.6l2.8,2.8    c-1.1,1.7-1.9,3.7-2.4,5.7l-4,0c-1.4,0-2.6,1.1-2.6,2.6l0,1.6 M285.6,105.2c0-4.5,3.7-8.2,8.2-8.2c4.5,0,8.2,3.6,8.2,8.2"/>
		
			<rect id="XMLID_39_" x="259.9" y="106" transform="matrix(-1 -1.224647e-16 1.224647e-16 -1 528.6598 253.0042)" class="st2" width="8.8" height="41.1"/>
		<path id="XMLID_38_" class="st3" d="M261.8,147h7V106h-8.8v39.2C259.9,146.2,260.7,147,261.8,147z"/>
		<polygon id="XMLID_37_" class="st4" points="255.4,111.9 264.2,111.9 267.1,106 258.3,106   "/>
		<polygon id="XMLID_36_" class="st3" points="255.4,111.9 264.2,111.9 267.1,106 258.3,106   "/>
		<rect id="XMLID_15_" x="268.7" y="106" class="st5" width="53.3" height="41.1"/>
		<path id="XMLID_12_" class="st3" d="M322.1,139.9v3.6c0,1.9-1.6,3.5-3.5,3.5h-49.8V106h53.3v19.5"/>
		<polygon id="XMLID_9_" class="st4" points="326.6,111.9 273.3,111.9 270.4,106 323.7,106   "/>
		<polygon id="XMLID_8_" class="st3" points="326.6,111.9 273.3,111.9 270.4,106 323.7,106   "/>
	</g>
	<g>
		<g id="XMLID_608_">
			<path id="XMLID_621_" class="st0" d="M75.2,118.5v-5.3h1.6c0.6,0,1.1-0.5,1.1-1.1v-2.4c0-0.6-0.5-1.1-1.1-1.1H65.1     c-0.6,0-1.1,0.5-1.1,1.1v2.4c0,0.6,0.5,1.1,1.1,1.1h1.6v5.3c-6.5,2-11.1,8.4-10.2,15.8c0.8,6.6,6.2,11.9,12.8,12.6     c8.8,1,16.3-5.9,16.3-14.5C85.5,125.9,81.2,120.4,75.2,118.5z"/>
			<circle id="XMLID_620_" class="st4" cx="70.9" cy="132.6" r="11.7"/>
			<g id="XMLID_612_">
				<circle id="XMLID_619_" class="st3" cx="70.9" cy="132.6" r="9.4"/>
				<path id="XMLID_618_" class="st3" d="M74.1,123.8c1.4,2.3,2.3,5.4,2.3,8.8c0,3.4-0.9,6.5-2.3,8.8"/>
				<path id="XMLID_617_" class="st3" d="M67.8,123.8c-1.4,2.3-2.3,5.4-2.3,8.8c0,3.4,0.9,6.5,2.3,8.8"/>
				<line id="XMLID_616_" class="st3" x1="70.9" y1="123.2" x2="70.9" y2="141.9"/>
				<line id="XMLID_615_" class="st3" x1="61.5" y1="132.6" x2="80.2" y2="132.6"/>
				<line id="XMLID_614_" class="st3" x1="62.9" y1="128.1" x2="79.1" y2="128.1"/>
				<line id="XMLID_613_" class="st3" x1="62.6" y1="137" x2="78.9" y2="137"/>
			</g>
			<line id="XMLID_611_" class="st3" x1="71.8" y1="113.3" x2="75.3" y2="113.3"/>
			<path id="XMLID_610_" class="st3" d="M83.8,139.4c0.2-0.4,0.4-0.7,0.5-1.1"/>
			<path id="XMLID_609_" class="st3" d="M85.1,135.9c0.3-1.1,0.4-2.3,0.4-3.5c0-6.6-4.3-12.1-10.3-13.9v-5.3h1.6     c0.6,0,1.1-0.5,1.1-1.1v-2.4c0-0.6-0.5-1.1-1.1-1.1H65.1c-0.6,0-1.1,0.5-1.1,1.1v2.4c0,0.6,0.5,1.1,1.1,1.1h1.6v5.3     c-6.5,2-11.1,8.4-10.2,15.8c0.8,6.6,6.2,11.9,12.8,12.6c5.4,0.6,10.4-1.8,13.3-5.7"/>
		</g>
		<path class="st3" d="M70.9,106.9v-0.8c0-2.4-1.9-4.3-4.3-4.3h-1.5c-1.2,0-2.1-0.9-2.1-2.1l0,0c0-1.2,0.9-2.1,2.1-2.1h16.6    c1.2,0,2.1-0.9,2.1-2.1v-0.4c0-1.2-0.9-2.1-2.1-2.1H72"/>
		<line class="st3" x1="59.1" y1="92.9" x2="70.3" y2="92.9"/>
		<line class="st3" x1="65.4" y1="89.9" x2="76.6" y2="89.9"/>
	</g>
	<g>
		<g id="XMLID_61_">
			<path id="XMLID_62_" class="st2" d="M34.1,135.7c-0.1-0.5-0.1-0.8-0.1-1.1c0-0.1,0-0.2,0-0.3c0-1.8,0.3-3.5,1-5.1     c0.7-1.5,1.6-2.9,2.8-4.1c0.1-0.1,0.2-0.2,0.2-0.2c0.2-0.2,0.4-0.4,0.7-0.6l2.1,2.8c-0.2,0.1-0.2,0.1-0.3,0.3     c-0.1,0.1-0.2,0.2-0.3,0.3c-0.9,0.9-1.6,1.9-2,3c-0.5,1.2-0.7,2.4-0.7,3.7c0,0.2,0,0.3,0,0.4c0,0.2,0,0.2,0,0.5L34.1,135.7z"/>
		</g>
		<g id="XMLID_58_">
			<path id="XMLID_60_" class="st4" d="M47,147.3c-1.8,0-3.5-0.3-5.1-1c-1.5-0.7-2.9-1.6-4.1-2.8c-1.2-1.2-2.1-2.6-2.8-4.1     c-0.2-0.4-0.4-0.9-0.5-1.4l3.4-1c0.1,0.3,0.2,0.7,0.4,1c0.5,1.1,1.2,2.1,2,3c0.9,0.9,1.9,1.6,3,2c2.3,1,5,1,7.4,0     c1.1-0.5,2.1-1.2,3-2c0.9-0.9,1.6-1.9,2-3l3.2,1.4c-0.7,1.5-1.6,2.9-2.8,4.1c-1.2,1.2-2.6,2.1-4.1,2.8     C50.4,146.9,48.7,147.3,47,147.3z"/>
		</g>
		<g id="XMLID_56_">
			<path id="XMLID_57_" class="st5" d="M59.7,137l-3.4-0.7c0.1-0.6,0.2-1.3,0.2-2c0-1.3-0.3-2.5-0.7-3.7c-0.5-1.1-1.2-2.1-2-3     c-0.9-0.9-1.9-1.6-3-2c-2.3-1-5-1-7.4,0c-0.2,0.1-0.3,0.1-0.4,0.2c-0.2,0.1-0.2,0.1-0.4,0.2l-1.8-3c0.4-0.2,0.6-0.3,0.9-0.4     c0.1,0,0.2-0.1,0.3-0.1c3.2-1.4,6.9-1.4,10.1,0c1.5,0.7,2.9,1.6,4.1,2.8c1.2,1.2,2.1,2.6,2.8,4.1c0.7,1.6,1,3.3,1,5.1     C60,135.2,59.9,136.1,59.7,137z"/>
		</g>
		<g id="XMLID_205_">
			<path id="XMLID_55_" class="st3" d="M34.5,135.7c-0.2,0-0.5-0.1-0.5-0.4c0-0.3,0-0.4,0-0.7c0-0.1,0-0.2,0-0.3     c0-2.5,0.7-4.9,2.1-7c0.5-0.8,1.1-1.5,1.8-2.2c0.1-0.1,0.1-0.1,0.2-0.2c0.1-0.1,0.2-0.2,0.4-0.4c0.2-0.2,0.5-0.1,0.6,0.1l1.6,2.2     c0.1,0.2,0.1,0.4,0,0.5c-0.1,0.1-0.2,0.2-0.3,0.3c-0.9,0.9-1.6,1.9-2,3c-0.5,1.2-0.7,2.4-0.7,3.7c0,0.2,0,0.3,0,0.4     c0,0.2,0,0.2,0,0.5L34.5,135.7z"/>
		</g>
		<g id="XMLID_53_">
			<path id="XMLID_54_" class="st3" d="M47,147.3c-1.8,0-3.5-0.3-5.1-1c-1.5-0.7-2.9-1.6-4.1-2.8c-1.2-1.2-2.1-2.6-2.8-4.1     c-0.1-0.3-0.3-0.7-0.4-1c-0.1-0.2,0-0.4,0.2-0.5l2.7-0.8c0.2-0.1,0.4,0,0.4,0.2c0.1,0.2,0.2,0.4,0.3,0.7c0.5,1.1,1.2,2.1,2,3     c1.3,1.3,2.9,2.2,4.8,2.6c1.3,0.3,2.6,0.3,3.8,0c1.9-0.4,3.5-1.3,4.8-2.6c0.8-0.8,1.4-1.7,1.9-2.7c0.1-0.2,0.3-0.3,0.5-0.2     l2.5,1.1c0.2,0.1,0.3,0.3,0.2,0.5c-0.6,1.4-1.5,2.7-2.6,3.8c-1.2,1.2-2.6,2.1-4.1,2.8C50.4,146.9,48.7,147.3,47,147.3z"/>
		</g>
		<g id="XMLID_50_">
			<path id="XMLID_52_" class="st3" d="M52,122.3c1.5,0.7,2.9,1.6,4.1,2.8c1.2,1.2,2.1,2.6,2.8,4.1c0.7,1.6,1,3.3,1,5.1     c0,0.8-0.1,1.6-0.2,2.3c0,0.2-0.2,0.3-0.4,0.3l-2.7-0.6c-0.2,0-0.3-0.2-0.3-0.4c0.1-0.5,0.1-1.1,0.1-1.6c0-1.3-0.3-2.5-0.7-3.7     c-0.5-1.1-1.2-2.1-2-3c-0.9-0.9-1.9-1.6-3-2c-2.3-1-5-1-7.4,0c-0.1,0-0.3,0.1-0.4,0.2c-0.2,0.1-0.4,0-0.5-0.1l-1.4-2.4     c-0.1-0.2,0-0.4,0.1-0.5c0.2-0.1,0.4-0.2,0.6-0.3c0.1,0,0.1,0,0.2-0.1c1.6-0.6,3.2-1,4.9-1.1"/>
			<path id="XMLID_51_" class="st3" d="M49.3,121.5c0.5,0.1,1.1,0.2,1.6,0.4"/>
		</g>
		<rect id="XMLID_49_" x="40.8" y="133.9" class="st4" width="2.7" height="5.2"/>
		<rect id="XMLID_198_" x="45.4" y="131.9" class="st4" width="2.7" height="7.3"/>
		<rect id="XMLID_197_" x="49.9" y="128.8" class="st4" width="2.7" height="10.3"/>
		<rect id="XMLID_196_" x="40.8" y="133.9" class="st3" width="2.7" height="5.2"/>
		<rect id="XMLID_195_" x="45.4" y="131.9" class="st3" width="2.7" height="7.3"/>
		<rect id="XMLID_194_" x="49.9" y="128.8" class="st3" width="2.7" height="10.3"/>
	</g>
	<g id="XMLID_710_">
		<path id="XMLID_732_" class="st0" d="M153.9,64.5H120c-1.1,0-2-0.9-2-2V39c0-1.1,0.9-2,2-2h33.9c1.1,0,2,0.9,2,2v23.5    C155.9,63.5,155,64.5,153.9,64.5z"/>
		<path id="XMLID_731_" class="st4" d="M118,42.8v-4c0-1.1,0.9-1.9,1.9-1.9H154c1.1,0,1.9,0.9,1.9,1.9v4H118z"/>
		<path id="XMLID_730_" class="st3" d="M118,44.8v-6c0-1.1,0.9-1.9,1.9-1.9h4h16.1"/>
		<path id="XMLID_729_" class="st3" d="M147.5,36.9h6.5c1.1,0,1.9,0.9,1.9,1.9v23.7c0,1.1-0.9,1.9-1.9,1.9h-34.2    c-1.1,0-1.9-0.9-1.9-1.9v-3.2"/>
		<line id="XMLID_728_" class="st3" x1="143" y1="36.9" x2="146.4" y2="36.9"/>
		<line id="XMLID_727_" class="st3" x1="118" y1="42.9" x2="155.9" y2="42.9"/>
		<line id="XMLID_726_" class="st3" x1="122.3" y1="40.2" x2="123.8" y2="40.2"/>
		<line id="XMLID_725_" class="st3" x1="125.8" y1="40.2" x2="127.4" y2="40.2"/>
		<line id="XMLID_724_" class="st3" x1="129.4" y1="40.2" x2="130.9" y2="40.2"/>
		<path id="XMLID_719_" class="st4" d="M118.4,58.1H118c-1.3,0-2.4-1.1-2.4-2.4v-6.9c0-1.3,1.1-2.4,2.4-2.4h0.3    c1.3,0,2.4,1.1,2.4,2.4v6.9C120.7,57,119.7,58.1,118.4,58.1z"/>
		<path id="XMLID_718_" class="st3" d="M118.4,58.1H118c-1.3,0-2.4-1.1-2.4-2.4v-6.9c0-1.3,1.1-2.4,2.4-2.4h0.3    c1.3,0,2.4,1.1,2.4,2.4v6.9C120.7,57,119.7,58.1,118.4,58.1z"/>
		<path id="XMLID_717_" class="st3" d="M113.5,54.3h-0.3c-1,0-1.9-0.9-1.9-1.9v-0.3c0-1,0.9-1.9,1.9-1.9h0.3c1,0,1.9,0.9,1.9,1.9    v0.3C115.4,53.4,114.5,54.3,113.5,54.3z"/>
		<line id="XMLID_716_" class="st3" x1="120.7" y1="52.2" x2="140.4" y2="52.2"/>
		<line id="XMLID_63_" class="st3" x1="137.9" y1="52.1" x2="137.9" y2="56.4"/>
		<line id="XMLID_712_" class="st3" x1="134.5" y1="52.1" x2="134.5" y2="55.1"/>
		<line id="XMLID_711_" class="st3" x1="118.1" y1="49.3" x2="118.1" y2="54.7"/>
	</g>
	<path class="st6" d="M122,147h0.8h1.5h0.8h0.7c0-4.2-1.3-8-3.4-11.2h2.2v0.8h0.9c1.7,0,3.1-1.4,3.1-3.1v-27.7   c0-1.7-1.4-3.1-3.1-3.1h-7.1v0.8h-0.9v36.6h-3.8l0.7,4.2c0.2,1.3,0.9,2.3,1.9,3h5.1H122z"/>
	<g id="XMLID_628_">
		<path id="XMLID_667_" class="st0" d="M123.8,135.8H83.1c-1.1,0-2-0.9-2-2v-28.4c0-1.1,0.9-2,2-2h40.8c1.1,0,2,0.9,2,2v28.4    C125.8,134.9,124.9,135.8,123.8,135.8z"/>
		<path id="XMLID_666_" class="st4" d="M81,110.3v-4.7c0-1.2,1-2.2,2.2-2.2h40.3c1.2,0,2.2,1,2.2,2.2v4.7H81z"/>
		<line id="XMLID_665_" class="st3" x1="81" y1="110.4" x2="125.8" y2="110.4"/>
		<line id="XMLID_664_" class="st3" x1="86.2" y1="107.2" x2="88" y2="107.2"/>
		<line id="XMLID_663_" class="st3" x1="90.3" y1="107.2" x2="92.1" y2="107.2"/>
		<line id="XMLID_662_" class="st3" x1="94.5" y1="107.2" x2="96.3" y2="107.2"/>
		<path id="XMLID_660_" class="st3" d="M116.4,103.3h7.1c1.3,0,2.4,1.1,2.4,2.4v27.7c0,1.3-1.1,2.4-2.4,2.4h-0.9"/>
		<line id="XMLID_659_" class="st3" x1="108" y1="103.3" x2="113.6" y2="103.3"/>
		<path id="XMLID_658_" class="st3" d="M84.1,135.8h-0.7c-1.3,0-2.4-1.1-2.4-2.4v-27.7c0-1.3,1.1-2.4,2.4-2.4h23.4"/>
		<path id="XMLID_657_" class="st2" d="M123,147c0-10.8-8.7-19.5-19.5-19.5c-10.8,0-19.5,8.7-19.5,19.5H123z"/>
		<path id="XMLID_656_" class="st3" d="M123,147c0-10.8-8.7-19.5-19.5-19.5c-10.8,0-19.5,8.7-19.5,19.5"/>
		<path id="XMLID_652_" class="st4" d="M120,147c0-9.1-7.4-16.5-16.5-16.5c-9.1,0-16.5,7.4-16.5,16.5H120z"/>
		<path id="XMLID_651_" class="st0" d="M112.5,147c0-5-4-9-9-9c-5,0-9,4-9,9H112.5z"/>
		<path id="XMLID_650_" class="st2" d="M105.5,147c0-1.1-0.9-2.1-2.1-2.1c-1.1,0-2.1,0.9-2.1,2.1H105.5z"/>
		<path id="XMLID_649_" class="st3" d="M120,147c0-9.1-7.4-16.5-16.5-16.5c-9.1,0-16.5,7.4-16.5,16.5"/>
		<line id="XMLID_648_" class="st3" x1="103.5" y1="130.3" x2="103.4" y2="133.4"/>
		<line id="XMLID_647_" class="st3" x1="111.1" y1="132.5" x2="109.5" y2="135.2"/>
		<line id="XMLID_646_" class="st3" x1="117.8" y1="138.8" x2="114.9" y2="140.4"/>
		<line id="XMLID_645_" class="st3" x1="89.2" y1="138.8" x2="92" y2="140.5"/>
		<line id="XMLID_644_" class="st3" x1="95.9" y1="132.5" x2="97.4" y2="135.2"/>
		<g id="XMLID_641_">
			<g id="XMLID_64_">
				<polygon class="st2" points="103.5,145.5 111,138.6 111.4,139 104.6,146.5     "/>
			</g>
		</g>
		<g id="XMLID_637_">
			<line id="XMLID_640_" class="st3" x1="103.5" y1="123.9" x2="103.5" y2="127.5"/>
			<path id="XMLID_639_" class="st2" d="M106.6,125.4h-6.3c-0.4,0-0.8-0.4-0.8-0.8v-2.3c0-0.4,0.4-0.8,0.8-0.8h6.3     c0.4,0,0.8,0.4,0.8,0.8v2.3C107.4,125.1,107,125.4,106.6,125.4z"/>
			<path id="XMLID_638_" class="st3" d="M106.6,125.4h-6.3c-0.4,0-0.8-0.4-0.8-0.8v-2.3c0-0.4,0.4-0.8,0.8-0.8h6.3     c0.4,0,0.8,0.4,0.8,0.8v2.3C107.4,125.1,107,125.4,106.6,125.4z"/>
		</g>
		<g id="XMLID_633_">
			<line id="XMLID_636_" class="st3" x1="115.4" y1="127.7" x2="114" y2="130.1"/>
			<path id="XMLID_635_" class="st2" d="M116.7,129.8l-3.9-2.2c-0.4-0.2-0.5-0.7-0.3-1.1l0.7-1.2c0.2-0.4,0.7-0.5,1.1-0.3l3.9,2.2     c0.4,0.2,0.5,0.7,0.3,1.1l-0.7,1.2C117.6,129.9,117.1,130,116.7,129.8z"/>
			<path id="XMLID_634_" class="st3" d="M116.7,129.8l-3.9-2.2c-0.4-0.2-0.5-0.7-0.3-1.1l0.7-1.2c0.2-0.4,0.7-0.5,1.1-0.3l3.9,2.2     c0.4,0.2,0.5,0.7,0.3,1.1l-0.7,1.2C117.6,129.9,117.1,130,116.7,129.8z"/>
		</g>
		<g id="XMLID_629_">
			<line id="XMLID_632_" class="st3" x1="91.3" y1="127.7" x2="92.7" y2="130.1"/>
			<path id="XMLID_631_" class="st2" d="M90,129.8l3.9-2.2c0.4-0.2,0.5-0.7,0.3-1.1l-0.7-1.2c-0.2-0.4-0.7-0.5-1.1-0.3l-3.9,2.2     c-0.4,0.2-0.5,0.7-0.3,1.1l0.7,1.2C89.1,129.9,89.6,130,90,129.8z"/>
			<path id="XMLID_630_" class="st3" d="M90,129.8l3.9-2.2c0.4-0.2,0.5-0.7,0.3-1.1l-0.7-1.2c-0.2-0.4-0.7-0.5-1.1-0.3l-3.9,2.2     c-0.4,0.2-0.5,0.7-0.3,1.1l0.7,1.2C89.1,129.9,89.6,130,90,129.8z"/>
		</g>
	</g>
	<g id="XMLID_326_">
		<g id="XMLID_327_">
			<path id="XMLID_343_" class="st0" d="M338.7,147h48.7V89.7c0-1.2-1-2.2-2.2-2.2h-44.3c-1.2,0-2.2,1-2.2,2.2V147z"/>
			<path id="XMLID_74_" class="st3" d="M349,87.5h-6.1c-2.3,0-4.2,1.9-4.2,4.2v46.6"/>
			<line id="XMLID_341_" class="st3" x1="360.2" y1="87.5" x2="353.1" y2="87.5"/>
			<path id="XMLID_340_" class="st3" d="M387.4,138.4V91.8c0-2.3-1.9-4.2-4.2-4.2H362"/>
			<rect id="XMLID_339_" x="342.7" y="96.5" class="st4" width="40.7" height="50.6"/>
			<line id="XMLID_338_" class="st3" x1="357.9" y1="92.8" x2="368.2" y2="92.8"/>
			<path id="XMLID_72_" class="st2" d="M390.1,147v-1.6c0-1.6-1.3-2.8-2.8-2.8l-4.4,0c-0.5-2.3-1.4-4.4-2.6-6.4l3.1-3.1     c1.1-1.1,1.1-2.9,0-4l-2.3-2.3c-1.1-1.1-2.9-1.1-4,0l-3.1,3.1c-1.9-1.2-4.1-2.1-6.3-2.6v-4.4c0-1.6-1.3-2.9-2.9-2.9h-3.3     c-1.6,0-2.9,1.3-2.9,2.9v4.4c-2.3,0.5-4.4,1.4-6.3,2.6l-3.1-3.1c-1.1-1.1-2.9-1.1-4,0l-2.3,2.3c-1.1,1.1-1.1,2.9,0,4l3.1,3.1     c-1.2,1.9-2.1,4.1-2.7,6.3l-4.4,0c-1.6,0-2.9,1.3-2.9,2.8l0,1.7h18c0-5,4-9,9-9c5,0,9,4,9,9H390.1z"/>
			<path id="XMLID_328_" class="st3" d="M390.1,147v-1.6c0-1.6-1.3-2.8-2.8-2.8l-4.4,0c-0.5-2.3-1.4-4.4-2.6-6.4l3.1-3.1     c1.1-1.1,1.1-2.9,0-4l-2.3-2.3c-1.1-1.1-2.9-1.1-4,0l-3.1,3.1c-1.9-1.2-4.1-2.1-6.3-2.6v-4.4c0-1.6-1.3-2.9-2.9-2.9h-3.3     c-1.6,0-2.9,1.3-2.9,2.9v4.4c-2.3,0.5-4.4,1.4-6.3,2.6l-3.1-3.1c-1.1-1.1-2.9-1.1-4,0l-2.3,2.3c-1.1,1.1-1.1,2.9,0,4l3.1,3.1     c-1.2,1.9-2.1,4.1-2.7,6.3l-4.4,0c-1.6,0-2.9,1.3-2.9,2.8l0,1.7 M354,147c0-5,4-9,9-9c5,0,9,4,9,9"/>
		</g>
	</g>
	<path class="st6" d="M322.1,147v-1.1c0.5-0.7,0.7-1.5,0.7-2.4v-3.6h-0.7v-14.4h0.7v-9.9h-1.9v-0.7h-1.6v0.7h-3.5v-0.7h-5.8   c-1.6,0-2.9,1.3-2.9,2.9v27.1c0,1.6,1.3,2.9,2.9,2.9h8.5c0.9,0,1.7-0.3,2.4-0.8H322.1z"/>
	<path class="st6" d="M356.1,144.9v-27.1c0-1.6-1.3-2.9-2.9-2.9H338v23.6h0.8v3.3c-0.9,0-1.8,0.4-2.4,1c-0.7,0.7-1.1,1.6-1.1,2.6   l0,1.7l1.5,0l0,0h2h4h10.5h0.8h0.8h0.3C355.7,146.5,356.1,145.7,356.1,144.9z"/>
	<g id="XMLID_808_">
		<path id="XMLID_827_" class="st0" d="M351.3,147h-39.4c-1.1,0-2-0.9-2-2v-27.5c0-1.1,0.9-2,2-2h39.4c1.1,0,2,0.9,2,2V145    C353.4,146.1,352.5,147,351.3,147z"/>
		<path id="XMLID_826_" class="st4" d="M309.9,122.3v-4.5c0-1.2,1-2.2,2.2-2.2h39.1c1.2,0,2.2,1,2.2,2.2v4.5H309.9z"/>
		<path id="XMLID_825_" class="st3" d="M325.4,115.5h25.8c1.2,0,2.2,1,2.2,2.2v27.1c0,1.2-1,2.2-2.2,2.2h-39.1c-1.2,0-2.2-1-2.2-2.2    v-27.1c0-1.2,1-2.2,2.2-2.2h4.6h1.2"/>
		<line id="XMLID_824_" class="st3" x1="321.4" y1="115.5" x2="322.9" y2="115.5"/>
		<line id="XMLID_823_" class="st3" x1="309.9" y1="122.4" x2="353.4" y2="122.4"/>
		<line id="XMLID_822_" class="st3" x1="314.9" y1="119.3" x2="316.6" y2="119.3"/>
		<line id="XMLID_821_" class="st3" x1="318.9" y1="119.3" x2="320.6" y2="119.3"/>
		<line id="XMLID_820_" class="st3" x1="322.9" y1="119.3" x2="324.7" y2="119.3"/>
		<path id="XMLID_814_" class="st4" d="M345.2,143H318c-0.9,0-1.6-0.7-1.6-1.6v-14.1c0-0.9,0.7-1.6,1.6-1.6h27.2    c0.9,0,1.6,0.7,1.6,1.6v14.1C346.9,142.2,346.1,143,345.2,143z"/>
		<path id="XMLID_813_" class="st3" d="M345.2,143H318c-0.9,0-1.6-0.7-1.6-1.6v-14.1c0-0.9,0.7-1.6,1.6-1.6h27.2    c0.9,0,1.6,0.7,1.6,1.6v14.1C346.9,142.2,346.1,143,345.2,143z"/>
		<path id="XMLID_812_" class="st2" d="M334.3,133.1l-4.8,2.8c-0.3,0.2-0.7,0-0.7-0.4v-5.6c0-0.4,0.4-0.6,0.7-0.4l4.8,2.8    C334.6,132.4,334.6,132.9,334.3,133.1z"/>
		<path id="XMLID_811_" class="st3" d="M334.3,133.1l-4.8,2.8c-0.3,0.2-0.7,0-0.7-0.4v-5.6c0-0.4,0.4-0.6,0.7-0.4l4.8,2.8    C334.6,132.4,334.6,132.9,334.3,133.1z"/>
		<line id="XMLID_810_" class="st3" x1="319.8" y1="139.2" x2="343.1" y2="139.2"/>
		<line id="XMLID_809_" class="st3" x1="325" y1="141.1" x2="325" y2="137.3"/>
	</g>
	<line id="XMLID_5_" class="st3" x1="7.5" y1="147" x2="444.8" y2="147"/>
	<g>
		<g id="XMLID_606_">
			<path id="XMLID_607_" class="st2" d="M392.4,127.7h3.5v-7.1c0-3.5,2.9-6.4,6.4-6.4c3.5,0,6.4,2.9,6.4,6.4v7.1h3.5v-7.1     c0-5.5-4.5-9.9-9.9-9.9c-5.5,0-9.9,4.5-9.9,9.9V127.7z"/>
		</g>
		<g id="XMLID_604_">
			<path id="XMLID_605_" class="st3" d="M392.4,127.7h3.5v-7.1c0-3.5,2.9-6.4,6.4-6.4c3.5,0,6.4,2.9,6.4,6.4v7.1h3.5v-7.1     c0-5.5-4.5-9.9-9.9-9.9c-5.5,0-9.9,4.5-9.9,9.9V127.7z"/>
		</g>
		<circle id="XMLID_597_" class="st0" cx="402.4" cy="134.2" r="12.8"/>
		<circle id="XMLID_596_" class="st5" cx="402.4" cy="134.2" r="7.3"/>
		<circle id="XMLID_595_" class="st2" cx="402.4" cy="134.2" r="3"/>
		<circle id="XMLID_594_" class="st7" cx="402.4" cy="134.2" r="1.1"/>
		<circle id="XMLID_593_" class="st3" cx="402.4" cy="134.2" r="3"/>
		<path id="XMLID_592_" class="st3" d="M392.4,142.3c2.4,2.9,5.9,4.7,10,4.7c7.1,0,12.8-5.7,12.8-12.8c0-7.1-5.7-12.8-12.8-12.8    c-7.1,0-12.8,5.7-12.8,12.8c0,1.4,0.2,2.7,0.6,4"/>
		<path id="XMLID_591_" class="st3" d="M391.1,140.3c0.2,0.3,0.3,0.6,0.5,0.9"/>
		<line id="XMLID_590_" class="st3" x1="402.3" y1="128.5" x2="402.3" y2="130.2"/>
		<line id="XMLID_589_" class="st3" x1="399.5" y1="129.3" x2="400.3" y2="130.7"/>
		<line id="XMLID_588_" class="st3" x1="397.4" y1="131.4" x2="398.8" y2="132.2"/>
		<line id="XMLID_587_" class="st3" x1="396.7" y1="134.3" x2="398.3" y2="134.3"/>
		<line id="XMLID_586_" class="st3" x1="397.5" y1="137.1" x2="398.9" y2="136.3"/>
		<line id="XMLID_585_" class="st3" x1="399.5" y1="139.1" x2="400.4" y2="137.7"/>
		<line id="XMLID_75_" class="st3" x1="402.4" y1="139.9" x2="402.4" y2="138.2"/>
		<line id="XMLID_583_" class="st3" x1="405.2" y1="139.1" x2="404.4" y2="137.7"/>
		<line id="XMLID_582_" class="st3" x1="407.3" y1="137" x2="405.9" y2="136.2"/>
		<line id="XMLID_581_" class="st3" x1="408" y1="134.2" x2="406.4" y2="134.2"/>
		<line id="XMLID_580_" class="st3" x1="407.3" y1="131.3" x2="405.8" y2="132.2"/>
		<line id="XMLID_579_" class="st3" x1="405.2" y1="129.3" x2="404.3" y2="130.7"/>
	</g>
</g>
</svg>
